<?xml version="1.0" encoding="UTF-8"?>
<svg id="_레이어_1" data-name="레이어 1" xmlns="http://www.w3.org/2000/svg" viewBox="0 0 845.56 845.53">
  <defs>
    <style>
      .cls-1 {
        fill: #fff;
      }

      .cls-1, .cls-2, .cls-3, .cls-4, .cls-5, .cls-6, .cls-7 {
        fill-rule: evenodd;
      }

      .cls-2 {
        fill: #b53b45;
      }

      .cls-3 {
        fill: #174a9f;
      }

      .cls-4 {
        fill: #b53b44;
      }

      .cls-5 {
        fill: #273d91;
      }

      .cls-6 {
        fill: #19519c;
      }

      .cls-7 {
        fill: #90294d;
      }
    </style>
  </defs>
  <path class="cls-4" d="M387.29.07c-33.21-.13-66.41,9.33-100.07,19.01-70.51,26.53-95.78,45.51-132.08,72.81-24.05,20.01-46.04,42.08-66.56,67.44-14.71,19.77-26.72,34.22-43.04,74.67-17.28,49.81-15.6,99.62,4.31,152.93,20.3,44.14,38.91,63.84,72,90.88,4.26-4.36-2.73-15.04-1.98-23.51-5.01-31.29-1.6-62.58,5.31-94.64,20.88-66.06,43.26-92.09,73.44-122.14,17.78-16.74,49.47-41.37,98.63-57.05,63.22-17.39,126.43-13.74,191.64,18.89,46.17,25.81,74.81,54.52,101.93,97.24,59.99-34.52,127.27-74,183.44-106.65,3.51,1.6,1.28-2.55,1.25-5.08-30.86-44.49-68.32-82.38-114.15-114.25-21.47-13.92-45.49-29.29-90.16-46.79C533.52,10.95,495.84.4,458.17,0"/>
  <path class="cls-7" d="M845.16,397.1c-.4-21.16,1.35-20.81-1.81-34.21-8.45-67.56-41.93-140.68-64.44-174.68-84.91,47.31-168.66,98.75-256.97,147.24-15.14,7.89-49.41,27.3-67.97,38.41-58.99,35.37-127.67,70.59-189.28,107.25,2.23,4.15-4.15-.32-2.17,6,5.71,8.98,11.34,18.04,19.64,27.28,65.08-15.67,88.68-35.63,117.06-62.15,39.86-48.99,54.01-88.38,148.99-118.52,39.59-9.22,79.18-8.2,121.44,5.51,38.69,15.45,55.06,27.04,78.58,48.15,22.67,26.06,36.84,40.05,54.23,87.98,13.46,42.78,14.01,85.57.54,130.27,1.28,2.87,5.43,2.87,4.39-1.92,21.67-48.53,35.69-97.06,38.18-145.59"/>
  <path class="cls-2" d="M353.05,297.75c26.06-3.08,56.59,1.62,80.84,16.09,17.17,10.29,31.28,23.63,45.04,42.46-12.25,15.21-34.67,20.24-51.43,33.39-51.19,28.48-112.93,62.5-165.36,95.46-25.05-38.62-20.97-93.29.73-128.16,19.69-28.4,35.84-46.96,90.18-59.24Z"/>
  <path class="cls-6" d="M.24,454.97c-.67,50.52,20.69,113.33,41.47,157.35l-1.16.99,2.55-1.28c25.72-15.78,52.54-30.47,78.69-45.82,11.76-6.23,15.51-8.9,28.45-16.72-7.47-14.47-21.93-48.18-25.61-69.77-30.65-23.3-56-49.67-71.93-85.46-23.72-52.96-25.86-104.69-9.15-156.41,3.05-3.83-3.33-5.75-1.1-7.66,5.09-9.67,6.02-12.27,9.89-21.32,2.88-1.03,7.03-3.27,5.43.25-4.27,8.94-9.14,15.96-11.69,22.99.2,0-5.55,1.92-5.09,2.17C20.34,278.14.81,337.3,0,386.75l.32,2.42"/>
  <path class="cls-5" d="M406.73,444.75c24.32,13.61,48.72,27.71,71.92,42.64-20.04,27.66-34.18,44.2-82.14,57.82-39.41,12.69-95.34-10.88-111.95-30.67,7.95-5.72,27.5-5.83,42.58-13.96,33.56-13.64,56.74-32.8,79.59-55.82Z"/>
  <path class="cls-5" d="M385.13,844.8c-18.85,2.15-20.99-2.34-36.58-3.18-37.83-5.74-83.44-21.17-117.87-39.14-81.82-42.06-144.14-103.62-186.3-187.26.64-1.28-1.6-5.43,1.99-5.36,33.76-19.89,69.86-39.95,104.48-60.88,21.06,30.66,43.46,59.99,77.63,81.48,14.11,11.7,56.79,33.21,97.51,40.03,28.74,5.53,57.47,5.94,88.12.51,21.07-4.58,42.14-10.25,66.96-22.27,46.35-22.57,78.77-54.12,105.45-96.73,1.92,0,3.83,0,8.43.67,66.26,39.65,116.07,67.16,182.02,105.48-30.42,46.21-68.76,84.49-114.95,116.2-24.95,16.94-41.6,26.38-83.16,44.35-38.31,14.03-76.63,24.98-114.94,26.82"/>
  <path class="cls-3" d="M581.5,328.64c39.83-5.4,93.87,7.92,125.53,28.14,20.95,11.61,37.6,27.53,54.46,45.15,10.73,13.54,21.26,27.27,29.45,44.71,17.52,37.04,24.01,74.07,21.08,113.03-3.57,36.37-20.7,82.29-34.93,98.32-64.14-36.78-116.94-66.67-186.47-107.84-57.59-35.86-114.5-64.72-178.44-101.6-1.28-4.15-5.43.32-4.43-6.34,18.71-25.35,35.77-52.35,62.46-71.64,13.66-8.05,25.59-17.83,43.5-25.05,22.35-10.11,44.7-14.94,67.77-16.88Z"/>
  <path class="cls-1" d="M567.36,381.51h22.99c1.28.64,5.43-1.6,3.66,3.83,1.3,7.02-1.8,14.05,2.08,22.99,7.02,0,14.05,0,23.66-.67,2.98,6.6.21,18.95-.67,27.49-7.02,0-14.05,0-23.45,1.92-3.42,7.02-.33,14.05-1.45,22.99-.64,1.28,1.6,5.43-3.83,3.83h-22.99v-22.99c-.64-1.28,1.6-5.43-3.83-5.75h-23.45c-3.42-7.02-.33-14.05-1.45-22.99,4.15-1.28-.32-5.43,5.75-3.83,7.02,0,14.05,0,21.7-1.29,3.08-5.86.23-17.65,1.29-25.53Z"/>
  <path class="cls-1" d="M674.64,381.51c7.02,0,14.05,0,23.48-.49,4.19,5.39-1.35,20.51,3.34,27.31,7.02,0,14.05,0,23.66-.67,2.98,6.6.21,18.95,1.24,29.41h-22.99c-4.15-2.23.32,4.15-3.83,3.83v22.99h-22.99c-1.28-.64-5.43,1.6-5.75-3.83v-23.45c-7.02-3.42-14.05-.33-22.99-1.45-1.28,1.6-5.43-2.55-3.83-5.75v-15.33c-1.6-1.92,2.55-3.83,5.75-5.75,7.02,0,14.05,0,20.87-2.09,1.64-7.7-2.96-19.49,4.03-24.72Z"/>
  <path class="cls-1" d="M349.97,171.89c50.11-7.67,120.92,12.33,156.64,38.09,34.2,21.83,61.77,50.3,82.93,86.73-38.1,21.71-73.49,42.28-107.82,63.17-8.87-6.45-12.06-18.6-21.67-25.78-15.05-14.02-29.02-25.18-63.66-34.31-25.38-5.64-50.77-2.91-78.05,7.99-35.09,20.59-50.48,32.37-69.27,81.6-7.78,32.43-4.84,68.34,14.24,99.83,9.93,14.97,21.72,28.08,38.21,38.52,7.06,6.13,31.82,17.51,50.64,19.58,26.5,4.94,58.53-1.77,82.62-16.28,18.14-10.6,32.6-24.87,44.18-45.17,37.28,19.64,70.4,40.59,107.07,59.94-1.68,3.11,3.11-.24,2.15,4.82-18.9,30.47-41.41,56.3-72.58,77.52-15.69,13.86-65.93,39-109.17,43.8-37.36,6.35-74.71,2.13-113.69-8.89-71.28-27.62-91.96-51.11-126.21-92.92-18.25-20.03-45.65-78.72-47.56-126.35-3.84-36.88,2.2-73.75,15.51-111.54,13.53-30.79,22.14-45.65,35.1-62.1,17.92-23.75,39.53-43.81,66.13-60.41,22.46-16.46,73.08-36.86,114.25-37.83Z"/>
</svg>