<svg width="213" height="47" viewBox="0 0 213 47" fill="none" xmlns="http://www.w3.org/2000/svg">
<path d="M0 3.90928L6.47513 7.59441L12.9947 3.90928L6.47513 0L0 3.90928Z" fill="#BADBA3"/>
<path d="M19.7194 30.9155L26.4258 26.8896L32.9898 30.9155L19.7194 38.6623L6.47559 30.9155L12.9952 26.8896L19.7194 30.9155Z" fill="#BADBA3"/>
<path d="M32.9899 15.3143L46.3671 7.59441L59.6998 15.3143L73.0236 7.59441L79.6944 11.6023L66.4684 19.5105L79.6944 26.8898L73.0236 30.9156L66.4684 26.8898L59.6998 30.9156L73.0147 38.6445L93.0005 27.1677L79.6944 19.5105L93.0005 11.6023L73.0236 0L59.6998 7.59441L46.3671 0L26.4258 11.6023L32.9899 15.3143Z" fill="#BADBA3"/>
<path d="M39.7051 19.5105L46.367 23.0701L53.0645 19.5105V26.8897L46.367 30.9156L39.7318 26.8897L39.7051 19.5105Z" fill="#BADBA3"/>
<path d="M6.47559 30.9155L12.9952 26.8897V3.90918L6.47559 7.59431V30.9155Z" fill="#28AB6C"/>
<path d="M32.9892 15.3143L46.3664 7.59436V15.3143L39.7045 19.5105L39.7312 34.5828L19.7188 46.2209V38.6624L32.9892 30.9156V15.3143Z" fill="#28AB6C"/>
<path d="M59.6992 15.3143L73.023 7.59436V15.5923L66.4679 19.5105V26.8897L59.6992 30.9156V15.3143Z" fill="#28AB6C"/>
<path d="M73.0146 38.6445L93.0004 27.1677L92.9915 34.5828L73.0235 46.2389L73.0146 38.6445Z" fill="#27AB6B"/>
<path d="M46.3662 30.9155L53.0637 26.8896V34.5827L46.3662 38.6623V30.9155Z" fill="#27AB6B"/>
<path d="M0 3.9093L6.47513 7.59443V30.9156L19.7189 38.6625V46.221L0 34.5828V3.9093Z" fill="#2D4F5C"/>
<path d="M26.4258 11.6023L32.9899 15.3143V30.9156L26.4258 26.8897V11.6023Z" fill="#2D4F5C"/>
<path d="M46.3662 7.59448L59.6989 15.3144V30.9157L73.0139 38.6446L73.0228 46.239L53.0637 34.5829V19.5106L46.3662 15.3144V7.59448Z" fill="#2D4F5C"/>
<path d="M39.7314 26.8898L46.3667 30.9156V38.6624L39.7314 34.5828V26.8898Z" fill="#2D4F5C"/>
<path d="M73.0234 7.59448V15.5924L79.6942 11.6024L73.0234 7.59448Z" fill="#2D4F5C"/>
<path d="M66.4678 19.5105L79.6938 26.8897L73.023 30.9156L66.4678 26.8897V19.5105Z" fill="#2D4F5C"/>
<path d="M79.6943 19.5105L85.8848 23.0701L92.9915 19.5105L93.0004 11.6023L79.6943 19.5105Z" fill="#28AB6C"/>
<path d="M113.506 6H109V33.2036H113.506V6Z" fill="#2D4F5C"/>
<path d="M167.494 6H162.988V33.2036H167.494V6Z" fill="#28AB6C"/>
<path d="M131.497 15.0676V16.2893C130.183 15.515 128.647 15.0676 127.008 15.0676C122.041 15.0676 118.013 19.1284 118.013 24.1355C118.013 29.1426 122.041 33.2034 127.008 33.2034C128.647 33.2034 130.183 32.756 131.497 31.9817V33.2034H136.003V24.1355V15.0676H131.497ZM127.008 28.678C124.533 28.678 122.519 26.6477 122.519 24.1527C122.519 21.6405 124.533 19.6102 127.008 19.6102C129.5 19.6102 131.497 21.6405 131.497 24.1527C131.497 26.6477 129.483 28.678 127.008 28.678Z" fill="#2D4F5C"/>
<path d="M144.998 33.2036V31.9819C146.313 32.7562 147.849 33.2036 149.487 33.2036C154.454 33.2036 158.483 29.1429 158.483 24.1357C158.483 19.1286 154.454 15.0679 149.487 15.0679C147.849 15.0679 146.313 15.5152 144.998 16.2895V6H140.492V24.1357V33.2036H144.998ZM149.487 19.5932C151.979 19.5932 153.994 21.6236 153.994 24.1357C153.994 26.6307 151.979 28.6611 149.487 28.6611C147.012 28.6611 144.998 26.6307 144.998 24.1357C144.998 21.6236 147.012 19.5932 149.487 19.5932Z" fill="#2D4F5C"/>
<path d="M194.479 15.0676V24.1355V40H198.969V31.9817C200.283 32.756 201.819 33.2034 203.475 33.2034C208.442 33.2034 212.47 29.1426 212.47 24.1355C212.47 19.1284 208.442 15.0676 203.475 15.0676C201.836 15.0676 200.3 15.515 198.969 16.2893V15.0676H194.479ZM198.969 24.1355C198.969 21.6233 200.983 19.593 203.475 19.593C205.95 19.593 207.964 21.6233 207.964 24.1355C207.964 26.6305 205.95 28.6608 203.475 28.6608C200.983 28.6608 198.969 26.6305 198.969 24.1355Z" fill="#2D4F5C"/>
<path d="M185.468 15.0676V24.1355C185.468 26.6305 183.454 28.6608 180.962 28.6608C178.47 28.6608 176.472 26.6305 176.472 24.1355V15.0676H171.983V24.1355C171.983 29.1426 176.012 33.2034 180.979 33.2034C185.946 33.2034 189.974 29.1426 189.974 24.1355V15.0676H185.485H185.468Z" fill="#2D4F5C"/>
</svg>
