<svg width="200" height="47" viewBox="0 0 200 47" fill="none" xmlns="http://www.w3.org/2000/svg"><g clip-path="url(#clip0_916_2798)"><path d="M99.3877 20.1075C92.5859 20.1075 87.075 25.6185 87.075 32.4203C87.075 39.2221 92.5859 44.7331 99.3877 44.7331C106.19 44.7331 111.701 39.2221 111.701 32.4203C111.701 25.6185 106.19 20.1075 99.3877 20.1075ZM99.3877 39.5531C95.449 39.5531 92.2549 36.3591 92.2549 32.4203C92.2549 28.4816 95.449 25.2875 99.3877 25.2875C103.326 25.2875 106.521 28.4816 106.521 32.4203C106.521 36.3591 103.326 39.5531 99.3877 39.5531Z" fill="black"/><path d="M85.0558 20.7612V25.9412H72.1886L74.7786 28.5312V44.0959H69.5904V25.9412H59.1394V20.7612H85.0558Z" fill="black"/><path d="M200 20.7612V25.9412H187.124L189.723 28.5395V44.0959H184.534V25.9412H174.075V20.7612H200Z" fill="black"/><path d="M150.203 27.8858C150.203 28.9615 151.071 29.8303 152.147 29.8303H163.815C167.753 29.8303 170.947 33.0244 170.947 36.9631C170.947 40.9019 167.753 44.0959 163.815 44.0959H146.314V38.916H163.806C164.882 38.916 165.751 38.0471 165.751 36.9714C165.751 35.8957 164.882 35.0269 163.806 35.0269H152.147C148.208 35.0269 145.014 31.8328 145.014 27.894C145.014 23.9553 148.208 20.7612 152.147 20.7612H169.648V25.9495H152.147C151.071 25.9495 150.203 26.8183 150.203 27.894V27.8858Z" fill="black"/><path d="M134.754 20.7612H115.945V44.0959H121.142V37.6168L118.544 35.0186H134.754C138.693 35.0186 141.878 31.8245 141.878 27.8858C141.878 23.947 138.693 20.7612 134.754 20.7612ZM134.754 29.8221H121.142V25.9412H134.754C135.283 25.9412 135.78 26.1646 136.127 26.5122C136.475 26.8597 136.698 27.3396 136.698 27.8858C136.698 28.9615 135.829 29.8303 134.762 29.8303L134.754 29.8221Z" fill="black"/><path d="M43.194 6.50391L48.5808 6.50391V1.11706L43.194 1.11706V6.50391Z" fill="url(#paint0_linear_916_2798)"/><path d="M31.5106 2.35304L33.572 7.32983L38.5488 5.26838L36.4874 0.291586L31.5106 2.35304Z" fill="url(#paint1_linear_916_2798)"/><path d="M20.3679 3.81104L24.177 7.62012L27.9861 3.81104L24.177 0.00196925L20.3679 3.81104Z" fill="url(#paint2_linear_916_2798)"/><path d="M9.80519 5.26923L14.782 7.33069L16.8434 2.35389L11.8666 0.292439L9.80519 5.26923Z" fill="url(#paint3_linear_916_2798)"/><path d="M0.579266 5.69299L4.35254 5.69299L4.35254 1.91972L0.579266 1.91972L0.579266 5.69299Z" fill="url(#paint4_linear_916_2798)"/><path d="M43.4168 14.6501L46.9028 16.0941L48.3468 12.6081L44.8608 11.1641L43.4168 14.6501Z" fill="url(#paint5_linear_916_2798)"/><path d="M33.1403 15.5151H36.9136V11.7419H33.1403V15.5151Z" fill="url(#paint6_linear_916_2798)"/><path d="M20.6602 12.1742L22.7217 17.151L27.6985 15.0895L25.637 10.1128L20.6602 12.1742Z" fill="url(#paint7_linear_916_2798)"/><path d="M10.6532 13.6305L13.3213 16.2986L15.9894 13.6305L13.3213 10.9624L10.6532 13.6305Z" fill="url(#paint8_linear_916_2798)"/><path d="M0.00369651 14.6528L3.48975 16.0968L4.93372 12.6108L1.44767 11.1668L0.00369651 14.6528Z" fill="url(#paint9_linear_916_2798)"/><path d="M44.3564 23.4542L45.8835 24.9813L47.4107 23.4542L45.8835 21.927L44.3564 23.4542Z" fill="url(#paint10_linear_916_2798)"/><path d="M33.6199 24.0446L35.6152 24.8711L36.4417 22.8758L34.4464 22.0493L33.6199 24.0446Z" fill="url(#paint11_linear_916_2798)"/><path d="M21.4811 26.1481H26.8679V20.7612H21.4811V26.1481Z" fill="url(#paint12_linear_916_2798)"/><path d="M11.9067 22.8692L12.7332 24.8645L14.7285 24.038L13.902 22.0427L11.9067 22.8692Z" fill="url(#paint13_linear_916_2798)"/><path d="M0.932333 23.4558L2.45947 24.9829L3.98661 23.4558L2.45947 21.9286L0.932333 23.4558Z" fill="url(#paint14_linear_916_2798)"/><path d="M44.4741 32.6937L45.3005 34.689L47.2958 33.8625L46.4694 31.8672L44.4741 32.6937Z" fill="url(#paint15_linear_916_2798)"/><path d="M33.5004 33.2795L35.0276 34.8066L36.5547 33.2795L35.0276 31.7524L33.5004 33.2795Z" fill="url(#paint16_linear_916_2798)"/><path d="M20.6582 34.7353L25.635 36.7968L27.6965 31.82L22.7197 29.7585L20.6582 34.7353Z" fill="url(#paint17_linear_916_2798)"/><path d="M12.2382 34.3566H14.3979V32.1969H12.2382V34.3566Z" fill="url(#paint18_linear_916_2798)"/><path d="M1.04779 32.6904L1.87427 34.6857L3.86957 33.8592L3.04309 31.8639L1.04779 32.6904Z" fill="url(#paint19_linear_916_2798)"/><path d="M44.8076 44.1787H46.9673V42.019H44.8076V44.1787Z" fill="url(#paint20_linear_916_2798)"/><path d="M35.6149 41.6916L33.6196 42.5181L34.4461 44.5134L36.4414 43.6869L35.6149 41.6916Z" fill="url(#paint21_linear_916_2798)"/><path d="M20.3709 43.1049L24.1799 46.9139L27.989 43.1049L24.1799 39.2958L20.3709 43.1049Z" fill="url(#paint22_linear_916_2798)"/><path d="M11.9056 43.6846L13.9009 44.5111L14.7274 42.5158L12.7321 41.6893L11.9056 43.6846Z" fill="url(#paint23_linear_916_2798)"/><path d="M1.3818 44.1787H3.5415L3.5415 42.019H1.3818L1.3818 44.1787Z" fill="url(#paint24_linear_916_2798)"/></g><defs><linearGradient id="paint0_linear_916_2798" x1="-3.74023" y1="3.81462" x2="53.0409" y2="3.81462" gradientUnits="userSpaceOnUse"><stop stop-color="#72E7AD"/><stop offset="1" stop-color="#3D8AED"/></linearGradient><linearGradient id="paint1_linear_916_2798" x1="-3.74508" y1="3.81666" x2="53.0361" y2="3.81666" gradientUnits="userSpaceOnUse"><stop stop-color="#72E7AD"/><stop offset="1" stop-color="#3D8AED"/></linearGradient><linearGradient id="paint2_linear_916_2798" x1="-3.73997" y1="3.81661" x2="53.0412" y2="3.8166" gradientUnits="userSpaceOnUse"><stop stop-color="#72E7AD"/><stop offset="1" stop-color="#3D8AED"/></linearGradient><linearGradient id="paint3_linear_916_2798" x1="-3.7363" y1="3.81492" x2="53.0448" y2="3.81492" gradientUnits="userSpaceOnUse"><stop stop-color="#72E7AD"/><stop offset="1" stop-color="#3D8AED"/></linearGradient><linearGradient id="paint4_linear_916_2798" x1="-3.74014" y1="3.81463" x2="53.041" y2="3.81463" gradientUnits="userSpaceOnUse"><stop stop-color="#72E7AD"/><stop offset="1" stop-color="#3D8AED"/></linearGradient><linearGradient id="paint5_linear_916_2798" x1="-3.73915" y1="13.6353" x2="53.042" y2="13.6353" gradientUnits="userSpaceOnUse"><stop stop-color="#72E7AD"/><stop offset="1" stop-color="#3D8AED"/></linearGradient><linearGradient id="paint6_linear_916_2798" x1="-3.74011" y1="13.6368" x2="53.041" y2="13.6368" gradientUnits="userSpaceOnUse"><stop stop-color="#72E7AD"/><stop offset="1" stop-color="#3D8AED"/></linearGradient><linearGradient id="paint7_linear_916_2798" x1="-3.73559" y1="13.6325" x2="53.0455" y2="13.6325" gradientUnits="userSpaceOnUse"><stop stop-color="#72E7AD"/><stop offset="1" stop-color="#3D8AED"/></linearGradient><linearGradient id="paint8_linear_916_2798" x1="-3.74186" y1="13.64" x2="53.0393" y2="13.64" gradientUnits="userSpaceOnUse"><stop stop-color="#72E7AD"/><stop offset="1" stop-color="#3D8AED"/></linearGradient><linearGradient id="paint9_linear_916_2798" x1="-3.73913" y1="13.6357" x2="53.042" y2="13.6357" gradientUnits="userSpaceOnUse"><stop stop-color="#72E7AD"/><stop offset="1" stop-color="#3D8AED"/></linearGradient><linearGradient id="paint10_linear_916_2798" x1="-3.741" y1="23.4559" x2="53.0401" y2="23.456" gradientUnits="userSpaceOnUse"><stop stop-color="#72E7AD"/><stop offset="1" stop-color="#3D8AED"/></linearGradient><linearGradient id="paint11_linear_916_2798" x1="-3.74497" y1="23.4637" x2="53.0362" y2="23.4637" gradientUnits="userSpaceOnUse"><stop stop-color="#72E7AD"/><stop offset="1" stop-color="#3D8AED"/></linearGradient><linearGradient id="paint12_linear_916_2798" x1="-3.74028" y1="23.4588" x2="53.0409" y2="23.4588" gradientUnits="userSpaceOnUse"><stop stop-color="#72E7AD"/><stop offset="1" stop-color="#3D8AED"/></linearGradient><linearGradient id="paint13_linear_916_2798" x1="-3.74201" y1="23.4597" x2="53.0391" y2="23.4597" gradientUnits="userSpaceOnUse"><stop stop-color="#72E7AD"/><stop offset="1" stop-color="#3D8AED"/></linearGradient><linearGradient id="paint14_linear_916_2798" x1="-0.00384501" y1="23.4634" x2="53.0371" y2="23.4633" gradientUnits="userSpaceOnUse"><stop stop-color="#72E7AD"/><stop offset="1" stop-color="#3D8AED"/></linearGradient><linearGradient id="paint15_linear_916_2798" x1="-3.74319" y1="33.2829" x2="53.0379" y2="33.2829" gradientUnits="userSpaceOnUse"><stop stop-color="#72E7AD"/><stop offset="1" stop-color="#3D8AED"/></linearGradient><linearGradient id="paint16_linear_916_2798" x1="-3.7432" y1="33.2793" x2="53.0379" y2="33.2793" gradientUnits="userSpaceOnUse"><stop stop-color="#72E7AD"/><stop offset="1" stop-color="#3D8AED"/></linearGradient><linearGradient id="paint17_linear_916_2798" x1="-3.74028" y1="33.2794" x2="53.0409" y2="33.2794" gradientUnits="userSpaceOnUse"><stop stop-color="#72E7AD"/><stop offset="1" stop-color="#3D8AED"/></linearGradient><linearGradient id="paint18_linear_916_2798" x1="-3.74024" y1="33.2809" x2="53.0409" y2="33.2809" gradientUnits="userSpaceOnUse"><stop stop-color="#72E7AD"/><stop offset="1" stop-color="#3D8AED"/></linearGradient><linearGradient id="paint19_linear_916_2798" x1="-3.73791" y1="33.2833" x2="53.0432" y2="33.2833" gradientUnits="userSpaceOnUse"><stop stop-color="#72E7AD"/><stop offset="1" stop-color="#3D8AED"/></linearGradient><linearGradient id="paint20_linear_916_2798" x1="-3.74014" y1="43.103" x2="53.0409" y2="43.103" gradientUnits="userSpaceOnUse"><stop stop-color="#72E7AD"/><stop offset="1" stop-color="#3D8AED"/></linearGradient><linearGradient id="paint21_linear_916_2798" x1="-3.7378" y1="43.102" x2="53.0433" y2="43.102" gradientUnits="userSpaceOnUse"><stop stop-color="#72E7AD"/><stop offset="1" stop-color="#3D8AED"/></linearGradient><linearGradient id="paint22_linear_916_2798" x1="-3.73703" y1="43.1027" x2="53.0441" y2="43.1027" gradientUnits="userSpaceOnUse"><stop stop-color="#72E7AD"/><stop offset="1" stop-color="#3D8AED"/></linearGradient><linearGradient id="paint23_linear_916_2798" x1="-3.73531" y1="43.1035" x2="53.0458" y2="43.1035" gradientUnits="userSpaceOnUse"><stop stop-color="#72E7AD"/><stop offset="1" stop-color="#3D8AED"/></linearGradient><linearGradient id="paint24_linear_916_2798" x1="-3.74025" y1="43.103" x2="53.0409" y2="43.103" gradientUnits="userSpaceOnUse"><stop stop-color="#72E7AD"/><stop offset="1" stop-color="#3D8AED"/></linearGradient><clipPath id="clip0_916_2798"><rect width="200" height="46.9094" fill="white"/></clipPath></defs></svg>