<svg width="1400" height="800" viewBox="0 0 1400 800" fill="none" xmlns="http://www.w3.org/2000/svg">
<path d="M707.027 270.567C766.965 270.567 815.554 319.157 815.554 379.094C815.554 439.032 766.965 487.621 707.027 487.621C647.09 487.621 598.5 439.032 598.5 379.094C598.5 319.157 647.09 270.567 707.027 270.567Z" fill="white" stroke="white"/>
<path d="M1161.08 31.5C1221.02 31.5002 1269.61 80.0897 1269.61 140.027C1269.61 199.965 1221.02 248.554 1161.08 248.554C1101.15 248.554 1052.56 199.965 1052.56 140.027C1052.56 80.0895 1101.15 31.5 1161.08 31.5Z" fill="white" stroke="white"/>
<path d="M1136.52 551.76C1196.46 551.76 1245.05 600.35 1245.05 660.288C1245.05 720.225 1196.46 768.814 1136.52 768.814C1076.58 768.814 1027.99 720.225 1027.99 660.288C1027.99 600.35 1076.58 551.76 1136.52 551.76Z" fill="white" stroke="white"/>
<path d="M771.622 522.236C789.694 557.134 815.274 587.597 846.525 611.431C877.902 635.361 914.209 652.01 952.815 660.174V660.174C961.486 662.03 970.324 663.472 979.176 664.469C979.988 697.082 990.972 728.621 1010.58 754.679C984.936 754.762 959.352 752.096 934.271 746.721H934.271C877.475 734.698 824.502 708.908 780.008 671.618C735.745 634.521 701.223 587.173 679.437 533.697C710.615 539.235 742.742 535.242 771.622 522.236Z" fill="white" stroke="white"/>
<path d="M1306.2 202.771C1347.34 265.251 1367.77 339.105 1364.58 413.861C1361.39 488.593 1334.75 560.414 1288.46 619.148C1279.97 587.677 1261.89 559.627 1236.72 538.904C1261.09 499.265 1274.72 453.959 1276.25 407.448C1277.78 360.945 1267.16 314.849 1245.46 273.701C1272.41 256.733 1293.58 232.003 1306.2 202.771Z" fill="white" stroke="white"/>
<path d="M699.501 222.195C767.238 103.394 899.542 33.1292 1035.82 43.5586C1016.43 68.7915 1005.07 99.2793 1003.24 131.059C961.103 131.848 919.753 142.621 882.587 162.498C845.424 182.374 813.509 210.782 789.461 245.386C765.025 230.366 736.963 222.291 708.293 222.021L706.92 222.014C704.446 222.012 701.973 222.075 699.501 222.195Z" fill="white" stroke="white"/>
<path d="M1143 469.336C1143.12 469.102 1143.23 468.866 1143.35 468.63C1144.04 467.082 1144.69 465.511 1145.27 463.919C1145.86 462.327 1146.4 460.716 1146.87 459.088C1147.35 457.46 1147.77 455.816 1148.14 454.159C1148.5 452.502 1148.81 450.833 1149.06 449.155C1149.32 447.477 1149.51 445.791 1149.65 444.099C1149.78 442.408 1149.86 440.713 1149.88 439.017C1149.9 437.32 1149.87 435.623 1149.77 433.929C1149.68 432.235 1149.52 430.545 1149.31 428.861C1149.1 427.177 1148.83 425.501 1148.51 423.836C1148.18 422.171 1147.8 420.517 1147.36 418.878C1146.92 417.239 1146.43 415.615 1145.88 414.01C1145.33 412.404 1144.73 410.818 1144.07 409.253C1143.41 407.689 1142.7 406.148 1141.94 404.632C1141.17 403.116 1140.36 401.626 1139.5 400.166C1138.63 398.706 1137.72 397.275 1136.75 395.878C1135.79 394.48 1134.78 393.115 1133.73 391.787C1132.67 390.457 1131.57 389.164 1130.43 387.91C1129.28 386.656 1128.09 385.442 1126.87 384.269C1125.64 383.096 1124.37 381.965 1123.07 380.878C1121.76 379.792 1120.42 378.75 1119.05 377.755C1117.67 376.759 1116.26 375.811 1114.82 374.912C1110.68 372.325 1106.29 370.151 1101.72 368.421C1097.15 366.692 1092.43 365.415 1087.61 364.609C1082.79 363.804 1077.9 363.473 1073.02 363.622C1068.13 363.771 1063.28 364.399 1058.51 365.498C1053.75 366.596 1049.11 368.159 1044.66 370.164C1040.2 372.169 1035.96 374.606 1031.98 377.44C1028 380.275 1024.31 383.494 1020.96 387.049C1017.61 390.605 1014.62 394.48 1012.03 398.62C1010.65 400.826 1009.16 402.959 1007.56 405.01C1005.95 407.06 1004.24 409.025 1002.43 410.897C1000.62 412.769 998.719 414.544 996.724 416.217C994.729 417.889 992.647 419.457 990.488 420.912C988.328 422.367 986.094 423.708 983.794 424.929C981.495 426.151 979.133 427.251 976.719 428.225C974.304 429.2 971.84 430.048 969.336 430.766C966.833 431.483 964.293 432.069 961.728 432.521C959.163 432.972 956.576 433.289 953.978 433.47C951.38 433.652 948.775 433.698 946.172 433.607C943.569 433.516 940.973 433.289 938.393 432.927C935.814 432.565 933.256 432.068 930.73 431.439C928.202 430.809 925.71 430.048 923.262 429.158C920.815 428.268 918.416 427.251 916.075 426.11C913.734 424.969 911.455 423.707 909.246 422.328C907.037 420.949 904.903 419.456 902.851 417.854C900.798 416.252 898.831 414.544 896.958 412.737C895.084 410.929 893.307 409.025 891.633 407.031C889.958 405.038 888.39 402.959 886.933 400.802C885.477 398.645 884.135 396.413 882.913 394.115C881.69 391.818 880.588 389.458 879.612 387.045C878.637 384.633 877.788 382.171 877.07 379.67C876.353 377.169 875.766 374.632 875.314 372.07C874.862 369.507 874.544 366.922 874.362 364.326C874.181 361.731 874.135 359.128 874.226 356.528C874.317 353.927 874.544 351.333 874.907 348.757C875.269 346.18 875.767 343.624 876.397 341.099C877.027 338.574 877.788 336.085 878.679 333.64C879.57 331.195 880.588 328.798 881.73 326.459C882.872 324.121 884.135 321.843 885.515 319.636C886.692 317.79 887.949 315.996 889.283 314.261C888.753 314.945 888.23 315.634 887.712 316.328C888.446 315.281 889.207 314.254 889.994 313.246C890.152 313.063 890.311 312.88 890.471 312.698C912.44 281.667 945.446 260.193 982.738 252.669C1020.03 245.145 1058.79 252.139 1091.09 272.22C1123.18 292.348 1146.4 323.92 1156.04 360.528C1165.68 397.136 1161.02 436.038 1143 469.336ZM1143 469.336C1141.61 472.138 1140.12 474.895 1138.55 477.604C1139.45 476.165 1140.3 474.695 1141.1 473.199C1141.77 471.93 1142.41 470.642 1143 469.336ZM1013.25 396.614C1013.22 396.65 1013.2 396.687 1013.18 396.723M1013.13 396.812C1013.12 396.835 1013.1 396.858 1013.09 396.881M1012.73 397.485C1012.7 397.54 1012.66 397.594 1012.63 397.648M1012.53 397.821C1012.51 397.854 1012.49 397.887 1012.47 397.919M1012.32 398.154C1012.31 398.176 1012.3 398.198 1012.28 398.221" stroke="white" stroke-width="20"/>
<path d="M1114.82 374.912C1110.68 372.325 1106.29 370.151 1101.72 368.421C1097.15 366.692 1092.43 365.415 1087.61 364.609C1082.79 363.804 1077.9 363.473 1073.02 363.622C1068.13 363.771 1063.28 364.399 1058.51 365.498C1053.75 366.596 1049.11 368.159 1044.66 370.164C1040.2 372.169 1035.96 374.606 1031.98 377.44C1028 380.275 1024.31 383.494 1020.96 387.049C1017.61 390.605 1014.62 394.48 1012.03 398.62C1010.65 400.826 1009.16 402.959 1007.56 405.01C1005.95 407.06 1004.24 409.025 1002.43 410.897C1000.62 412.769 998.719 414.544 996.724 416.217C994.729 417.889 992.647 419.457 990.488 420.912C988.328 422.367 986.094 423.708 983.794 424.929C981.495 426.151 979.133 427.251 976.718 428.225C974.304 429.2 971.84 430.048 969.336 430.766C966.832 431.483 964.293 432.069 961.728 432.521C959.163 432.972 956.576 433.289 953.978 433.47C951.38 433.652 948.775 433.698 946.172 433.607C943.569 433.516 940.972 433.289 938.393 432.927C935.814 432.565 933.256 432.068 930.729 431.439C928.202 430.809 925.71 430.048 923.262 429.158C920.815 428.268 918.416 427.251 916.075 426.11C913.734 424.969 911.455 423.707 909.246 422.328C907.037 420.949 904.903 419.456 902.851 417.854C900.798 416.252 898.831 414.544 896.958 412.736C895.084 410.929 893.307 409.025 891.633 407.031C889.958 405.038 888.39 402.959 886.933 400.802C885.477 398.644 884.135 396.413 882.912 394.115C881.69 391.818 880.588 389.458 879.612 387.045C878.637 384.633 877.788 382.171 877.07 379.67C876.352 377.169 875.766 374.632 875.314 372.07C874.862 369.507 874.544 366.922 874.362 364.326C874.18 361.731 874.135 359.128 874.226 356.528C874.317 353.927 874.544 351.333 874.907 348.757C875.269 346.18 875.767 343.624 876.397 341.099C877.027 338.574 877.788 336.085 878.679 333.64C879.497 331.427 880.421 329.253 881.445 327.128C863.159 360.458 858.309 399.509 867.888 436.294C877.467 473.079 900.75 504.817 932.976 525.019C965.242 545.067 1003.95 552.06 1041.2 544.572C1078.45 537.083 1111.43 515.677 1133.43 484.722C1133.75 484.354 1134.06 483.982 1134.38 483.608C1135.87 481.676 1137.26 479.672 1138.55 477.604C1139.45 476.165 1140.3 474.695 1141.1 473.199C1141.9 471.702 1142.65 470.178 1143.35 468.63C1144.04 467.082 1144.69 465.511 1145.27 463.919C1145.86 462.327 1146.39 460.716 1146.87 459.088C1147.35 457.46 1147.77 455.816 1148.14 454.159C1148.5 452.502 1148.81 450.833 1149.06 449.155C1149.32 447.477 1149.51 445.791 1149.65 444.099C1149.78 442.408 1149.86 440.713 1149.88 439.017C1149.9 437.32 1149.87 435.623 1149.77 433.929C1149.68 432.235 1149.52 430.545 1149.31 428.861C1149.1 427.177 1148.83 425.501 1148.51 423.836C1148.18 422.171 1147.8 420.517 1147.36 418.878C1146.92 417.239 1146.43 415.615 1145.88 414.01C1145.33 412.404 1144.73 410.818 1144.07 409.253C1143.41 407.689 1142.7 406.148 1141.94 404.632C1141.17 403.116 1140.36 401.626 1139.5 400.166C1138.63 398.706 1137.72 397.275 1136.75 395.877C1135.79 394.48 1134.78 393.115 1133.73 391.786C1132.67 390.457 1131.57 389.164 1130.43 387.91C1129.28 386.656 1128.09 385.442 1126.87 384.269C1125.64 383.096 1124.37 381.965 1123.07 380.878C1121.76 379.792 1120.42 378.75 1119.05 377.755C1117.67 376.759 1116.26 375.811 1114.82 374.912ZM881.445 327.128C882.11 325.761 882.795 324.405 883.502 323.059C882.882 324.177 882.291 325.311 881.73 326.459C881.634 326.682 881.539 326.905 881.445 327.128Z" fill="white"/>
<path d="M881.445 327.128C880.421 329.253 879.497 331.427 878.679 333.64C877.788 336.085 877.027 338.574 876.397 341.099C875.767 343.624 875.269 346.18 874.907 348.757C874.544 351.333 874.317 353.927 874.226 356.528C874.135 359.128 874.18 361.731 874.362 364.326C874.544 366.922 874.862 369.507 875.314 372.07C875.766 374.632 876.352 377.169 877.07 379.67C877.788 382.171 878.637 384.633 879.612 387.045C880.588 389.458 881.69 391.818 882.912 394.115C884.135 396.413 885.477 398.644 886.933 400.802C888.39 402.959 889.958 405.038 891.633 407.031C893.307 409.025 895.084 410.929 896.958 412.736C898.831 414.544 900.798 416.252 902.851 417.854C904.903 419.456 907.037 420.949 909.246 422.328C911.455 423.707 913.734 424.969 916.075 426.11C918.416 427.251 920.815 428.268 923.262 429.158C925.71 430.048 928.202 430.809 930.729 431.439C933.256 432.068 935.814 432.565 938.393 432.927C940.972 433.289 943.569 433.516 946.172 433.607C948.775 433.698 951.38 433.652 953.978 433.47C956.576 433.289 959.163 432.972 961.728 432.521C964.293 432.069 966.832 431.483 969.336 430.766C971.84 430.048 974.304 429.2 976.718 428.225C979.133 427.251 981.495 426.151 983.794 424.929C986.094 423.708 988.328 422.367 990.488 420.912C992.647 419.457 994.729 417.889 996.724 416.217C998.719 414.544 1000.62 412.769 1002.43 410.897C1004.24 409.025 1005.95 407.06 1007.56 405.01C1009.16 402.959 1010.65 400.826 1012.03 398.62C1014.62 394.48 1017.61 390.605 1020.96 387.049C1024.31 383.494 1028 380.275 1031.98 377.44C1035.96 374.606 1040.2 372.169 1044.66 370.164C1049.11 368.159 1053.75 366.596 1058.51 365.498C1063.28 364.399 1068.13 363.771 1073.02 363.622C1077.9 363.473 1082.79 363.804 1087.61 364.609C1092.43 365.415 1097.15 366.692 1101.72 368.421C1106.29 370.151 1110.68 372.325 1114.82 374.912C1116.26 375.811 1117.67 376.759 1119.05 377.755C1120.42 378.75 1121.76 379.792 1123.07 380.878C1124.37 381.965 1125.64 383.096 1126.87 384.269C1128.09 385.442 1129.28 386.656 1130.43 387.91C1131.57 389.164 1132.67 390.457 1133.73 391.786C1134.78 393.115 1135.79 394.48 1136.75 395.877C1137.72 397.275 1138.63 398.706 1139.5 400.166C1140.36 401.626 1141.17 403.116 1141.94 404.632C1142.7 406.148 1143.41 407.689 1144.07 409.253C1144.73 410.818 1145.33 412.404 1145.88 414.01C1146.43 415.615 1146.92 417.239 1147.36 418.878C1147.8 420.517 1148.18 422.171 1148.51 423.836C1148.83 425.501 1149.1 427.177 1149.31 428.861C1149.52 430.545 1149.68 432.235 1149.77 433.929C1149.87 435.623 1149.9 437.32 1149.88 439.017C1149.86 440.713 1149.78 442.408 1149.65 444.099C1149.51 445.791 1149.32 447.477 1149.06 449.155C1148.81 450.833 1148.5 452.502 1148.14 454.159C1147.77 455.816 1147.35 457.46 1146.87 459.088C1146.39 460.716 1145.86 462.327 1145.27 463.919C1144.69 465.511 1144.04 467.082 1143.35 468.63C1142.65 470.178 1141.9 471.702 1141.1 473.199C1140.3 474.695 1139.45 476.165 1138.55 477.604C1137.26 479.672 1135.87 481.676 1134.38 483.608C1134.06 483.982 1133.75 484.354 1133.43 484.722C1111.43 515.677 1078.45 537.083 1041.2 544.572C1003.95 552.06 965.242 545.067 932.976 525.019C900.75 504.817 877.467 473.079 867.888 436.294C858.309 399.509 863.159 360.458 881.445 327.128ZM881.445 327.128C882.11 325.761 882.795 324.405 883.502 323.059C882.882 324.177 882.291 325.311 881.73 326.459C881.634 326.682 881.539 326.905 881.445 327.128Z" stroke="white" stroke-width="20"/>
<mask id="path-10-outside-1_101_2" maskUnits="userSpaceOnUse" x="107" y="30" width="475" height="740" fill="black">
<rect fill="white" x="107" y="30" width="475" height="740"/>
<path d="M126.6 769C125.213 764.147 124.52 757.56 124.52 749.24C124.52 740.227 124.52 732.947 124.52 727.4C124.52 682.333 133.88 642.467 152.6 607.8C172.013 573.133 195.933 541.24 224.36 512.12C252.787 482.307 281.213 453.88 309.64 426.84C332.52 404.653 353.32 383.853 372.04 364.44C390.76 345.027 405.667 325.613 416.76 306.2C427.853 286.093 433.4 264.253 433.4 240.68C433.4 202.547 423 175.507 402.2 159.56C381.4 143.613 355.4 135.64 324.2 135.64C297.853 135.64 273.933 140.147 252.44 149.16C231.64 158.173 213.96 168.573 199.4 180.36C185.533 191.453 175.48 200.12 169.24 206.36L108.92 123.16C123.48 109.293 141.507 95.4266 163 81.56C184.493 67 209.107 55.2133 236.84 46.1999C264.573 36.4933 294.733 31.6399 327.32 31.6399C405.667 31.6399 463.56 49.6666 501 85.72C538.44 121.773 557.16 171 557.16 233.4C557.16 268.76 548.493 302.04 531.16 333.24C513.827 364.44 491.64 394.253 464.6 422.68C438.253 450.413 411.213 477.8 383.48 504.84C366.147 521.48 347.773 539.853 328.36 559.96C309.64 579.373 293.347 598.787 279.48 618.2C266.307 636.92 259.027 653.56 257.64 668.12H580.04V769H126.6Z"/>
</mask>
<path d="M126.6 769C125.213 764.147 124.52 757.56 124.52 749.24C124.52 740.227 124.52 732.947 124.52 727.4C124.52 682.333 133.88 642.467 152.6 607.8C172.013 573.133 195.933 541.24 224.36 512.12C252.787 482.307 281.213 453.88 309.64 426.84C332.52 404.653 353.32 383.853 372.04 364.44C390.76 345.027 405.667 325.613 416.76 306.2C427.853 286.093 433.4 264.253 433.4 240.68C433.4 202.547 423 175.507 402.2 159.56C381.4 143.613 355.4 135.64 324.2 135.64C297.853 135.64 273.933 140.147 252.44 149.16C231.64 158.173 213.96 168.573 199.4 180.36C185.533 191.453 175.48 200.12 169.24 206.36L108.92 123.16C123.48 109.293 141.507 95.4266 163 81.56C184.493 67 209.107 55.2133 236.84 46.1999C264.573 36.4933 294.733 31.6399 327.32 31.6399C405.667 31.6399 463.56 49.6666 501 85.72C538.44 121.773 557.16 171 557.16 233.4C557.16 268.76 548.493 302.04 531.16 333.24C513.827 364.44 491.64 394.253 464.6 422.68C438.253 450.413 411.213 477.8 383.48 504.84C366.147 521.48 347.773 539.853 328.36 559.96C309.64 579.373 293.347 598.787 279.48 618.2C266.307 636.92 259.027 653.56 257.64 668.12H580.04V769H126.6Z" fill="white"/>
<path d="M126.6 769L125.638 769.275L125.846 770H126.6V769ZM152.6 607.8L151.727 607.311L151.724 607.318L151.72 607.325L152.6 607.8ZM224.36 512.12L225.076 512.819L225.084 512.81L224.36 512.12ZM309.64 426.84L310.329 427.565L310.336 427.558L309.64 426.84ZM372.04 364.44L372.76 365.134L372.76 365.134L372.04 364.44ZM416.76 306.2L417.628 306.696L417.632 306.69L417.636 306.683L416.76 306.2ZM252.44 149.16L252.053 148.238L252.042 148.242L252.44 149.16ZM199.4 180.36L200.025 181.141L200.029 181.137L199.4 180.36ZM169.24 206.36L168.43 206.947L169.118 207.896L169.947 207.067L169.24 206.36ZM108.92 123.16L108.23 122.436L107.597 123.039L108.11 123.747L108.92 123.16ZM163 81.56L163.542 82.4003L163.552 82.3942L163.561 82.3879L163 81.56ZM236.84 46.1999L237.149 47.151L237.16 47.1475L237.17 47.1438L236.84 46.1999ZM501 85.72L500.306 86.4403L500.306 86.4403L501 85.72ZM531.16 333.24L530.286 332.754L530.286 332.754L531.16 333.24ZM464.6 422.68L463.875 421.991L463.875 421.991L464.6 422.68ZM383.48 504.84L384.173 505.561L384.178 505.556L383.48 504.84ZM328.36 559.96L327.641 559.265L327.64 559.266L328.36 559.96ZM279.48 618.2L278.666 617.619L278.662 617.624L279.48 618.2ZM257.64 668.12L256.645 668.025L256.54 669.12H257.64V668.12ZM580.04 668.12H581.04V667.12H580.04V668.12ZM580.04 769V770H581.04V769H580.04ZM126.6 769L127.562 768.725C126.212 764 125.52 757.519 125.52 749.24H124.52H123.52C123.52 757.601 124.215 764.293 125.638 769.275L126.6 769ZM124.52 749.24H125.52C125.52 749.222 125.52 749.205 125.52 749.187C125.52 749.17 125.52 749.152 125.52 749.134C125.52 749.117 125.52 749.099 125.52 749.082C125.52 749.064 125.52 749.047 125.52 749.029C125.52 749.012 125.52 748.994 125.52 748.976C125.52 748.959 125.52 748.941 125.52 748.924C125.52 748.906 125.52 748.889 125.52 748.871C125.52 748.854 125.52 748.836 125.52 748.819C125.52 748.801 125.52 748.784 125.52 748.766C125.52 748.749 125.52 748.731 125.52 748.714C125.52 748.696 125.52 748.679 125.52 748.661C125.52 748.644 125.52 748.627 125.52 748.609C125.52 748.592 125.52 748.574 125.52 748.557C125.52 748.539 125.52 748.522 125.52 748.505C125.52 748.487 125.52 748.47 125.52 748.452C125.52 748.435 125.52 748.417 125.52 748.4C125.52 748.383 125.52 748.365 125.52 748.348C125.52 748.331 125.52 748.313 125.52 748.296C125.52 748.278 125.52 748.261 125.52 748.244C125.52 748.226 125.52 748.209 125.52 748.192C125.52 748.174 125.52 748.157 125.52 748.14C125.52 748.122 125.52 748.105 125.52 748.088C125.52 748.07 125.52 748.053 125.52 748.036C125.52 748.019 125.52 748.001 125.52 747.984C125.52 747.967 125.52 747.949 125.52 747.932C125.52 747.915 125.52 747.898 125.52 747.88C125.52 747.863 125.52 747.846 125.52 747.829C125.52 747.811 125.52 747.794 125.52 747.777C125.52 747.76 125.52 747.742 125.52 747.725C125.52 747.708 125.52 747.691 125.52 747.673C125.52 747.656 125.52 747.639 125.52 747.622C125.52 747.605 125.52 747.587 125.52 747.57C125.52 747.553 125.52 747.536 125.52 747.519C125.52 747.502 125.52 747.484 125.52 747.467C125.52 747.45 125.52 747.433 125.52 747.416C125.52 747.399 125.52 747.382 125.52 747.364C125.52 747.347 125.52 747.33 125.52 747.313C125.52 747.296 125.52 747.279 125.52 747.262C125.52 747.245 125.52 747.228 125.52 747.21C125.52 747.193 125.52 747.176 125.52 747.159C125.52 747.142 125.52 747.125 125.52 747.108C125.52 747.091 125.52 747.074 125.52 747.057C125.52 747.04 125.52 747.023 125.52 747.006C125.52 746.989 125.52 746.972 125.52 746.955C125.52 746.938 125.52 746.921 125.52 746.904C125.52 746.887 125.52 746.87 125.52 746.853C125.52 746.836 125.52 746.819 125.52 746.802C125.52 746.785 125.52 746.768 125.52 746.751C125.52 746.734 125.52 746.717 125.52 746.7C125.52 746.683 125.52 746.666 125.52 746.649C125.52 746.632 125.52 746.615 125.52 746.598C125.52 746.581 125.52 746.564 125.52 746.547C125.52 746.53 125.52 746.514 125.52 746.497C125.52 746.48 125.52 746.463 125.52 746.446C125.52 746.429 125.52 746.412 125.52 746.395C125.52 746.378 125.52 746.362 125.52 746.345C125.52 746.328 125.52 746.311 125.52 746.294C125.52 746.277 125.52 746.26 125.52 746.244C125.52 746.227 125.52 746.21 125.52 746.193C125.52 746.176 125.52 746.159 125.52 746.143C125.52 746.126 125.52 746.109 125.52 746.092C125.52 746.075 125.52 746.059 125.52 746.042C125.52 746.025 125.52 746.008 125.52 745.992C125.52 745.975 125.52 745.958 125.52 745.941C125.52 745.924 125.52 745.908 125.52 745.891C125.52 745.874 125.52 745.858 125.52 745.841C125.52 745.824 125.52 745.807 125.52 745.791C125.52 745.774 125.52 745.757 125.52 745.74C125.52 745.724 125.52 745.707 125.52 745.69C125.52 745.674 125.52 745.657 125.52 745.64C125.52 745.624 125.52 745.607 125.52 745.59C125.52 745.574 125.52 745.557 125.52 745.54C125.52 745.524 125.52 745.507 125.52 745.49C125.52 745.474 125.52 745.457 125.52 745.44C125.52 745.424 125.52 745.407 125.52 745.391C125.52 745.374 125.52 745.357 125.52 745.341C125.52 745.324 125.52 745.308 125.52 745.291C125.52 745.274 125.52 745.258 125.52 745.241C125.52 745.225 125.52 745.208 125.52 745.192C125.52 745.175 125.52 745.158 125.52 745.142C125.52 745.125 125.52 745.109 125.52 745.092C125.52 745.076 125.52 745.059 125.52 745.043C125.52 745.026 125.52 745.01 125.52 744.993C125.52 744.977 125.52 744.96 125.52 744.944C125.52 744.927 125.52 744.911 125.52 744.894C125.52 744.878 125.52 744.861 125.52 744.845C125.52 744.828 125.52 744.812 125.52 744.795C125.52 744.779 125.52 744.763 125.52 744.746C125.52 744.73 125.52 744.713 125.52 744.697C125.52 744.68 125.52 744.664 125.52 744.648C125.52 744.631 125.52 744.615 125.52 744.598C125.52 744.582 125.52 744.566 125.52 744.549C125.52 744.533 125.52 744.516 125.52 744.5C125.52 744.484 125.52 744.467 125.52 744.451C125.52 744.435 125.52 744.418 125.52 744.402C125.52 744.385 125.52 744.369 125.52 744.353C125.52 744.336 125.52 744.32 125.52 744.304C125.52 744.288 125.52 744.271 125.52 744.255C125.52 744.239 125.52 744.222 125.52 744.206C125.52 744.19 125.52 744.173 125.52 744.157C125.52 744.141 125.52 744.125 125.52 744.108C125.52 744.092 125.52 744.076 125.52 744.06C125.52 744.043 125.52 744.027 125.52 744.011C125.52 743.995 125.52 743.978 125.52 743.962C125.52 743.946 125.52 743.93 125.52 743.913C125.52 743.897 125.52 743.881 125.52 743.865C125.52 743.849 125.52 743.832 125.52 743.816C125.52 743.8 125.52 743.784 125.52 743.768C125.52 743.751 125.52 743.735 125.52 743.719C125.52 743.703 125.52 743.687 125.52 743.671C125.52 743.654 125.52 743.638 125.52 743.622C125.52 743.606 125.52 743.59 125.52 743.574C125.52 743.558 125.52 743.542 125.52 743.525C125.52 743.509 125.52 743.493 125.52 743.477C125.52 743.461 125.52 743.445 125.52 743.429C125.52 743.413 125.52 743.397 125.52 743.381C125.52 743.365 125.52 743.349 125.52 743.332C125.52 743.316 125.52 743.3 125.52 743.284C125.52 743.268 125.52 743.252 125.52 743.236C125.52 743.22 125.52 743.204 125.52 743.188C125.52 743.172 125.52 743.156 125.52 743.14C125.52 743.124 125.52 743.108 125.52 743.092C125.52 743.076 125.52 743.06 125.52 743.044C125.52 743.028 125.52 743.012 125.52 742.996C125.52 742.98 125.52 742.964 125.52 742.948C125.52 742.932 125.52 742.916 125.52 742.901C125.52 742.885 125.52 742.869 125.52 742.853C125.52 742.837 125.52 742.821 125.52 742.805C125.52 742.789 125.52 742.773 125.52 742.757C125.52 742.741 125.52 742.725 125.52 742.71C125.52 742.694 125.52 742.678 125.52 742.662C125.52 742.646 125.52 742.63 125.52 742.614C125.52 742.599 125.52 742.583 125.52 742.567C125.52 742.551 125.52 742.535 125.52 742.519C125.52 742.503 125.52 742.488 125.52 742.472C125.52 742.456 125.52 742.44 125.52 742.424C125.52 742.409 125.52 742.393 125.52 742.377C125.52 742.361 125.52 742.345 125.52 742.33C125.52 742.314 125.52 742.298 125.52 742.282C125.52 742.267 125.52 742.251 125.52 742.235C125.52 742.219 125.52 742.204 125.52 742.188C125.52 742.172 125.52 742.156 125.52 742.141C125.52 742.125 125.52 742.109 125.52 742.093C125.52 742.078 125.52 742.062 125.52 742.046C125.52 742.031 125.52 742.015 125.52 741.999C125.52 741.984 125.52 741.968 125.52 741.952C125.52 741.937 125.52 741.921 125.52 741.905C125.52 741.89 125.52 741.874 125.52 741.858C125.52 741.843 125.52 741.827 125.52 741.811C125.52 741.796 125.52 741.78 125.52 741.764C125.52 741.749 125.52 741.733 125.52 741.718C125.52 741.702 125.52 741.686 125.52 741.671C125.52 741.655 125.52 741.64 125.52 741.624C125.52 741.608 125.52 741.593 125.52 741.577C125.52 741.562 125.52 741.546 125.52 741.531C125.52 741.515 125.52 741.5 125.52 741.484C125.52 741.468 125.52 741.453 125.52 741.437C125.52 741.422 125.52 741.406 125.52 741.391C125.52 741.375 125.52 741.36 125.52 741.344C125.52 741.329 125.52 741.313 125.52 741.298C125.52 741.282 125.52 741.267 125.52 741.251C125.52 741.236 125.52 741.22 125.52 741.205C125.52 741.189 125.52 741.174 125.52 741.159C125.52 741.143 125.52 741.128 125.52 741.112C125.52 741.097 125.52 741.081 125.52 741.066C125.52 741.051 125.52 741.035 125.52 741.02C125.52 741.004 125.52 740.989 125.52 740.974C125.52 740.958 125.52 740.943 125.52 740.927C125.52 740.912 125.52 740.897 125.52 740.881C125.52 740.866 125.52 740.851 125.52 740.835C125.52 740.82 125.52 740.804 125.52 740.789C125.52 740.774 125.52 740.758 125.52 740.743C125.52 740.728 125.52 740.712 125.52 740.697C125.52 740.682 125.52 740.666 125.52 740.651C125.52 740.636 125.52 740.621 125.52 740.605C125.52 740.59 125.52 740.575 125.52 740.559C125.52 740.544 125.52 740.529 125.52 740.514C125.52 740.498 125.52 740.483 125.52 740.468C125.52 740.453 125.52 740.437 125.52 740.422C125.52 740.407 125.52 740.392 125.52 740.376C125.52 740.361 125.52 740.346 125.52 740.331C125.52 740.316 125.52 740.3 125.52 740.285C125.52 740.27 125.52 740.255 125.52 740.24C125.52 740.224 125.52 740.209 125.52 740.194C125.52 740.179 125.52 740.164 125.52 740.149C125.52 740.133 125.52 740.118 125.52 740.103C125.52 740.088 125.52 740.073 125.52 740.058C125.52 740.043 125.52 740.027 125.52 740.012C125.52 739.997 125.52 739.982 125.52 739.967C125.52 739.952 125.52 739.937 125.52 739.922C125.52 739.907 125.52 739.892 125.52 739.876C125.52 739.861 125.52 739.846 125.52 739.831C125.52 739.816 125.52 739.801 125.52 739.786C125.52 739.771 125.52 739.756 125.52 739.741C125.52 739.726 125.52 739.711 125.52 739.696C125.52 739.681 125.52 739.666 125.52 739.651C125.52 739.636 125.52 739.621 125.52 739.606C125.52 739.591 125.52 739.576 125.52 739.561C125.52 739.546 125.52 739.531 125.52 739.516C125.52 739.501 125.52 739.486 125.52 739.471C125.52 739.456 125.52 739.441 125.52 739.426C125.52 739.411 125.52 739.396 125.52 739.381C125.52 739.366 125.52 739.351 125.52 739.337C125.52 739.322 125.52 739.307 125.52 739.292C125.52 739.277 125.52 739.262 125.52 739.247C125.52 739.232 125.52 739.217 125.52 739.202C125.52 739.188 125.52 739.173 125.52 739.158C125.52 739.143 125.52 739.128 125.52 739.113C125.52 739.098 125.52 739.084 125.52 739.069C125.52 739.054 125.52 739.039 125.52 739.024C125.52 739.009 125.52 738.995 125.52 738.98C125.52 738.965 125.52 738.95 125.52 738.935C125.52 738.92 125.52 738.906 125.52 738.891C125.52 738.876 125.52 738.861 125.52 738.847C125.52 738.832 125.52 738.817 125.52 738.802C125.52 738.787 125.52 738.773 125.52 738.758C125.52 738.743 125.52 738.728 125.52 738.714C125.52 738.699 125.52 738.684 125.52 738.67C125.52 738.655 125.52 738.64 125.52 738.625C125.52 738.611 125.52 738.596 125.52 738.581C125.52 738.567 125.52 738.552 125.52 738.537C125.52 738.523 125.52 738.508 125.52 738.493C125.52 738.479 125.52 738.464 125.52 738.449C125.52 738.435 125.52 738.42 125.52 738.405C125.52 738.391 125.52 738.376 125.52 738.361C125.52 738.347 125.52 738.332 125.52 738.318C125.52 738.303 125.52 738.288 125.52 738.274C125.52 738.259 125.52 738.245 125.52 738.23C125.52 738.215 125.52 738.201 125.52 738.186C125.52 738.172 125.52 738.157 125.52 738.142C125.52 738.128 125.52 738.113 125.52 738.099C125.52 738.084 125.52 738.07 125.52 738.055C125.52 738.041 125.52 738.026 125.52 738.012C125.52 737.997 125.52 737.983 125.52 737.968C125.52 737.954 125.52 737.939 125.52 737.925C125.52 737.91 125.52 737.896 125.52 737.881C125.52 737.867 125.52 737.852 125.52 737.838C125.52 737.823 125.52 737.809 125.52 737.794C125.52 737.78 125.52 737.765 125.52 737.751C125.52 737.736 125.52 737.722 125.52 737.708C125.52 737.693 125.52 737.679 125.52 737.664C125.52 737.65 125.52 737.635 125.52 737.621C125.52 737.607 125.52 737.592 125.52 737.578C125.52 737.563 125.52 737.549 125.52 737.535C125.52 737.52 125.52 737.506 125.52 737.492C125.52 737.477 125.52 737.463 125.52 737.449C125.52 737.434 125.52 737.42 125.52 737.406C125.52 737.391 125.52 737.377 125.52 737.363C125.52 737.348 125.52 737.334 125.52 737.32C125.52 737.305 125.52 737.291 125.52 737.277C125.52 737.262 125.52 737.248 125.52 737.234C125.52 737.219 125.52 737.205 125.52 737.191C125.52 737.177 125.52 737.162 125.52 737.148C125.52 737.134 125.52 737.12 125.52 737.105C125.52 737.091 125.52 737.077 125.52 737.063C125.52 737.048 125.52 737.034 125.52 737.02C125.52 737.006 125.52 736.992 125.52 736.977C125.52 736.963 125.52 736.949 125.52 736.935C125.52 736.921 125.52 736.906 125.52 736.892C125.52 736.878 125.52 736.864 125.52 736.85C125.52 736.836 125.52 736.821 125.52 736.807C125.52 736.793 125.52 736.779 125.52 736.765C125.52 736.751 125.52 736.737 125.52 736.722C125.52 736.708 125.52 736.694 125.52 736.68C125.52 736.666 125.52 736.652 125.52 736.638C125.52 736.624 125.52 736.61 125.52 736.595C125.52 736.581 125.52 736.567 125.52 736.553C125.52 736.539 125.52 736.525 125.52 736.511C125.52 736.497 125.52 736.483 125.52 736.469C125.52 736.455 125.52 736.441 125.52 736.427C125.52 736.413 125.52 736.399 125.52 736.385C125.52 736.371 125.52 736.357 125.52 736.343C125.52 736.329 125.52 736.315 125.52 736.301C125.52 736.287 125.52 736.273 125.52 736.259C125.52 736.245 125.52 736.231 125.52 736.217C125.52 736.203 125.52 736.189 125.52 736.175C125.52 736.161 125.52 736.147 125.52 736.133C125.52 736.119 125.52 736.105 125.52 736.091C125.52 736.077 125.52 736.063 125.52 736.049C125.52 736.035 125.52 736.022 125.52 736.008C125.52 735.994 125.52 735.98 125.52 735.966C125.52 735.952 125.52 735.938 125.52 735.924C125.52 735.91 125.52 735.897 125.52 735.883C125.52 735.869 125.52 735.855 125.52 735.841C125.52 735.827 125.52 735.813 125.52 735.8C125.52 735.786 125.52 735.772 125.52 735.758C125.52 735.744 125.52 735.731 125.52 735.717C125.52 735.703 125.52 735.689 125.52 735.675C125.52 735.662 125.52 735.648 125.52 735.634C125.52 735.62 125.52 735.606 125.52 735.593C125.52 735.579 125.52 735.565 125.52 735.551C125.52 735.538 125.52 735.524 125.52 735.51C125.52 735.496 125.52 735.483 125.52 735.469C125.52 735.455 125.52 735.441 125.52 735.428C125.52 735.414 125.52 735.4 125.52 735.387C125.52 735.373 125.52 735.359 125.52 735.345C125.52 735.332 125.52 735.318 125.52 735.304C125.52 735.291 125.52 735.277 125.52 735.263C125.52 735.25 125.52 735.236 125.52 735.222C125.52 735.209 125.52 735.195 125.52 735.182C125.52 735.168 125.52 735.154 125.52 735.141C125.52 735.127 125.52 735.113 125.52 735.1C125.52 735.086 125.52 735.073 125.52 735.059C125.52 735.045 125.52 735.032 125.52 735.018C125.52 735.005 125.52 734.991 125.52 734.977C125.52 734.964 125.52 734.95 125.52 734.937C125.52 734.923 125.52 734.91 125.52 734.896C125.52 734.883 125.52 734.869 125.52 734.856C125.52 734.842 125.52 734.828 125.52 734.815C125.52 734.801 125.52 734.788 125.52 734.774C125.52 734.761 125.52 734.747 125.52 734.734C125.52 734.72 125.52 734.707 125.52 734.693C125.52 734.68 125.52 734.667 125.52 734.653C125.52 734.64 125.52 734.626 125.52 734.613C125.52 734.599 125.52 734.586 125.52 734.572C125.52 734.559 125.52 734.545 125.52 734.532C125.52 734.519 125.52 734.505 125.52 734.492C125.52 734.478 125.52 734.465 125.52 734.452C125.52 734.438 125.52 734.425 125.52 734.411C125.52 734.398 125.52 734.385 125.52 734.371C125.52 734.358 125.52 734.345 125.52 734.331C125.52 734.318 125.52 734.304 125.52 734.291C125.52 734.278 125.52 734.264 125.52 734.251C125.52 734.238 125.52 734.224 125.52 734.211C125.52 734.198 125.52 734.184 125.52 734.171C125.52 734.158 125.52 734.145 125.52 734.131C125.52 734.118 125.52 734.105 125.52 734.091C125.52 734.078 125.52 734.065 125.52 734.052C125.52 734.038 125.52 734.025 125.52 734.012C125.52 733.999 125.52 733.985 125.52 733.972C125.52 733.959 125.52 733.946 125.52 733.932C125.52 733.919 125.52 733.906 125.52 733.893C125.52 733.879 125.52 733.866 125.52 733.853C125.52 733.84 125.52 733.827 125.52 733.813C125.52 733.8 125.52 733.787 125.52 733.774C125.52 733.761 125.52 733.748 125.52 733.734C125.52 733.721 125.52 733.708 125.52 733.695C125.52 733.682 125.52 733.669 125.52 733.656C125.52 733.642 125.52 733.629 125.52 733.616C125.52 733.603 125.52 733.59 125.52 733.577C125.52 733.564 125.52 733.551 125.52 733.538C125.52 733.524 125.52 733.511 125.52 733.498C125.52 733.485 125.52 733.472 125.52 733.459C125.52 733.446 125.52 733.433 125.52 733.42C125.52 733.407 125.52 733.394 125.52 733.381C125.52 733.368 125.52 733.355 125.52 733.342C125.52 733.329 125.52 733.316 125.52 733.303C125.52 733.29 125.52 733.277 125.52 733.264C125.52 733.251 125.52 733.238 125.52 733.225C125.52 733.212 125.52 733.199 125.52 733.186C125.52 733.173 125.52 733.16 125.52 733.147C125.52 733.134 125.52 733.121 125.52 733.108C125.52 733.095 125.52 733.082 125.52 733.069C125.52 733.056 125.52 733.043 125.52 733.03C125.52 733.017 125.52 733.004 125.52 732.991C125.52 732.979 125.52 732.966 125.52 732.953C125.52 732.94 125.52 732.927 125.52 732.914C125.52 732.901 125.52 732.888 125.52 732.875C125.52 732.863 125.52 732.85 125.52 732.837C125.52 732.824 125.52 732.811 125.52 732.798C125.52 732.785 125.52 732.773 125.52 732.76C125.52 732.747 125.52 732.734 125.52 732.721C125.52 732.709 125.52 732.696 125.52 732.683C125.52 732.67 125.52 732.657 125.52 732.644C125.52 732.632 125.52 732.619 125.52 732.606C125.52 732.593 125.52 732.581 125.52 732.568C125.52 732.555 125.52 732.542 125.52 732.53C125.52 732.517 125.52 732.504 125.52 732.491C125.52 732.479 125.52 732.466 125.52 732.453C125.52 732.44 125.52 732.428 125.52 732.415C125.52 732.402 125.52 732.39 125.52 732.377C125.52 732.364 125.52 732.351 125.52 732.339C125.52 732.326 125.52 732.313 125.52 732.301C125.52 732.288 125.52 732.275 125.52 732.263C125.52 732.25 125.52 732.237 125.52 732.225C125.52 732.212 125.52 732.2 125.52 732.187C125.52 732.174 125.52 732.162 125.52 732.149C125.52 732.136 125.52 732.124 125.52 732.111C125.52 732.099 125.52 732.086 125.52 732.073C125.52 732.061 125.52 732.048 125.52 732.036C125.52 732.023 125.52 732.01 125.52 731.998C125.52 731.985 125.52 731.973 125.52 731.96C125.52 731.948 125.52 731.935 125.52 731.923C125.52 731.91 125.52 731.898 125.52 731.885C125.52 731.872 125.52 731.86 125.52 731.847C125.52 731.835 125.52 731.822 125.52 731.81C125.52 731.797 125.52 731.785 125.52 731.772C125.52 731.76 125.52 731.747 125.52 731.735C125.52 731.723 125.52 731.71 125.52 731.698C125.52 731.685 125.52 731.673 125.52 731.66C125.52 731.648 125.52 731.635 125.52 731.623C125.52 731.61 125.52 731.598 125.52 731.586C125.52 731.573 125.52 731.561 125.52 731.548C125.52 731.536 125.52 731.524 125.52 731.511C125.52 731.499 125.52 731.486 125.52 731.474C125.52 731.462 125.52 731.449 125.52 731.437C125.52 731.425 125.52 731.412 125.52 731.4C125.52 731.387 125.52 731.375 125.52 731.363C125.52 731.35 125.52 731.338 125.52 731.326C125.52 731.313 125.52 731.301 125.52 731.289C125.52 731.277 125.52 731.264 125.52 731.252C125.52 731.24 125.52 731.227 125.52 731.215C125.52 731.203 125.52 731.19 125.52 731.178C125.52 731.166 125.52 731.154 125.52 731.141C125.52 731.129 125.52 731.117 125.52 731.105C125.52 731.092 125.52 731.08 125.52 731.068C125.52 731.056 125.52 731.043 125.52 731.031C125.52 731.019 125.52 731.007 125.52 730.995C125.52 730.982 125.52 730.97 125.52 730.958C125.52 730.946 125.52 730.934 125.52 730.921C125.52 730.909 125.52 730.897 125.52 730.885C125.52 730.873 125.52 730.861 125.52 730.848C125.52 730.836 125.52 730.824 125.52 730.812C125.52 730.8 125.52 730.788 125.52 730.776C125.52 730.763 125.52 730.751 125.52 730.739C125.52 730.727 125.52 730.715 125.52 730.703C125.52 730.691 125.52 730.679 125.52 730.667C125.52 730.654 125.52 730.642 125.52 730.63C125.52 730.618 125.52 730.606 125.52 730.594C125.52 730.582 125.52 730.57 125.52 730.558C125.52 730.546 125.52 730.534 125.52 730.522C125.52 730.51 125.52 730.498 125.52 730.486C125.52 730.474 125.52 730.462 125.52 730.45C125.52 730.438 125.52 730.426 125.52 730.414C125.52 730.402 125.52 730.39 125.52 730.378C125.52 730.366 125.52 730.354 125.52 730.342C125.52 730.33 125.52 730.318 125.52 730.306C125.52 730.294 125.52 730.282 125.52 730.27C125.52 730.258 125.52 730.246 125.52 730.234C125.52 730.222 125.52 730.21 125.52 730.198C125.52 730.186 125.52 730.175 125.52 730.163C125.52 730.151 125.52 730.139 125.52 730.127C125.52 730.115 125.52 730.103 125.52 730.091C125.52 730.079 125.52 730.068 125.52 730.056C125.52 730.044 125.52 730.032 125.52 730.02C125.52 730.008 125.52 729.996 125.52 729.985C125.52 729.973 125.52 729.961 125.52 729.949C125.52 729.937 125.52 729.925 125.52 729.914C125.52 729.902 125.52 729.89 125.52 729.878C125.52 729.866 125.52 729.855 125.52 729.843C125.52 729.831 125.52 729.819 125.52 729.807C125.52 729.796 125.52 729.784 125.52 729.772C125.52 729.76 125.52 729.749 125.52 729.737C125.52 729.725 125.52 729.713 125.52 729.702C125.52 729.69 125.52 729.678 125.52 729.667C125.52 729.655 125.52 729.643 125.52 729.631C125.52 729.62 125.52 729.608 125.52 729.596C125.52 729.585 125.52 729.573 125.52 729.561C125.52 729.55 125.52 729.538 125.52 729.526C125.52 729.515 125.52 729.503 125.52 729.491C125.52 729.48 125.52 729.468 125.52 729.456C125.52 729.445 125.52 729.433 125.52 729.421C125.52 729.41 125.52 729.398 125.52 729.387C125.52 729.375 125.52 729.363 125.52 729.352C125.52 729.34 125.52 729.329 125.52 729.317C125.52 729.305 125.52 729.294 125.52 729.282C125.52 729.271 125.52 729.259 125.52 729.248C125.52 729.236 125.52 729.224 125.52 729.213C125.52 729.201 125.52 729.19 125.52 729.178C125.52 729.167 125.52 729.155 125.52 729.144C125.52 729.132 125.52 729.121 125.52 729.109C125.52 729.098 125.52 729.086 125.52 729.075C125.52 729.063 125.52 729.052 125.52 729.04C125.52 729.029 125.52 729.017 125.52 729.006C125.52 728.994 125.52 728.983 125.52 728.971C125.52 728.96 125.52 728.948 125.52 728.937C125.52 728.926 125.52 728.914 125.52 728.903C125.52 728.891 125.52 728.88 125.52 728.868C125.52 728.857 125.52 728.846 125.52 728.834C125.52 728.823 125.52 728.811 125.52 728.8C125.52 728.789 125.52 728.777 125.52 728.766C125.52 728.754 125.52 728.743 125.52 728.732C125.52 728.72 125.52 728.709 125.52 728.698C125.52 728.686 125.52 728.675 125.52 728.664C125.52 728.652 125.52 728.641 125.52 728.63C125.52 728.618 125.52 728.607 125.52 728.596C125.52 728.584 125.52 728.573 125.52 728.562C125.52 728.551 125.52 728.539 125.52 728.528C125.52 728.517 125.52 728.505 125.52 728.494C125.52 728.483 125.52 728.472 125.52 728.46C125.52 728.449 125.52 728.438 125.52 728.427C125.52 728.415 125.52 728.404 125.52 728.393C125.52 728.382 125.52 728.37 125.52 728.359C125.52 728.348 125.52 728.337 125.52 728.326C125.52 728.314 125.52 728.303 125.52 728.292C125.52 728.281 125.52 728.27 125.52 728.258C125.52 728.247 125.52 728.236 125.52 728.225C125.52 728.214 125.52 728.203 125.52 728.191C125.52 728.18 125.52 728.169 125.52 728.158C125.52 728.147 125.52 728.136 125.52 728.125C125.52 728.113 125.52 728.102 125.52 728.091C125.52 728.08 125.52 728.069 125.52 728.058C125.52 728.047 125.52 728.036 125.52 728.025C125.52 728.014 125.52 728.002 125.52 727.991C125.52 727.98 125.52 727.969 125.52 727.958C125.52 727.947 125.52 727.936 125.52 727.925C125.52 727.914 125.52 727.903 125.52 727.892C125.52 727.881 125.52 727.87 125.52 727.859C125.52 727.848 125.52 727.837 125.52 727.826C125.52 727.815 125.52 727.804 125.52 727.793C125.52 727.782 125.52 727.771 125.52 727.76C125.52 727.749 125.52 727.738 125.52 727.727C125.52 727.716 125.52 727.705 125.52 727.694C125.52 727.683 125.52 727.672 125.52 727.661C125.52 727.65 125.52 727.639 125.52 727.628C125.52 727.618 125.52 727.607 125.52 727.596C125.52 727.585 125.52 727.574 125.52 727.563C125.52 727.552 125.52 727.541 125.52 727.53C125.52 727.519 125.52 727.509 125.52 727.498C125.52 727.487 125.52 727.476 125.52 727.465C125.52 727.454 125.52 727.443 125.52 727.433C125.52 727.422 125.52 727.411 125.52 727.4H124.52H123.52C123.52 727.411 123.52 727.422 123.52 727.433C123.52 727.443 123.52 727.454 123.52 727.465C123.52 727.476 123.52 727.487 123.52 727.498C123.52 727.509 123.52 727.519 123.52 727.53C123.52 727.541 123.52 727.552 123.52 727.563C123.52 727.574 123.52 727.585 123.52 727.596C123.52 727.607 123.52 727.618 123.52 727.628C123.52 727.639 123.52 727.65 123.52 727.661C123.52 727.672 123.52 727.683 123.52 727.694C123.52 727.705 123.52 727.716 123.52 727.727C123.52 727.738 123.52 727.749 123.52 727.76C123.52 727.771 123.52 727.782 123.52 727.793C123.52 727.804 123.52 727.815 123.52 727.826C123.52 727.837 123.52 727.848 123.52 727.859C123.52 727.87 123.52 727.881 123.52 727.892C123.52 727.903 123.52 727.914 123.52 727.925C123.52 727.936 123.52 727.947 123.52 727.958C123.52 727.969 123.52 727.98 123.52 727.991C123.52 728.002 123.52 728.014 123.52 728.025C123.52 728.036 123.52 728.047 123.52 728.058C123.52 728.069 123.52 728.08 123.52 728.091C123.52 728.102 123.52 728.113 123.52 728.125C123.52 728.136 123.52 728.147 123.52 728.158C123.52 728.169 123.52 728.18 123.52 728.191C123.52 728.203 123.52 728.214 123.52 728.225C123.52 728.236 123.52 728.247 123.52 728.258C123.52 728.27 123.52 728.281 123.52 728.292C123.52 728.303 123.52 728.314 123.52 728.326C123.52 728.337 123.52 728.348 123.52 728.359C123.52 728.37 123.52 728.382 123.52 728.393C123.52 728.404 123.52 728.415 123.52 728.427C123.52 728.438 123.52 728.449 123.52 728.46C123.52 728.472 123.52 728.483 123.52 728.494C123.52 728.505 123.52 728.517 123.52 728.528C123.52 728.539 123.52 728.551 123.52 728.562C123.52 728.573 123.52 728.584 123.52 728.596C123.52 728.607 123.52 728.618 123.52 728.63C123.52 728.641 123.52 728.652 123.52 728.664C123.52 728.675 123.52 728.686 123.52 728.698C123.52 728.709 123.52 728.72 123.52 728.732C123.52 728.743 123.52 728.754 123.52 728.766C123.52 728.777 123.52 728.789 123.52 728.8C123.52 728.811 123.52 728.823 123.52 728.834C123.52 728.846 123.52 728.857 123.52 728.868C123.52 728.88 123.52 728.891 123.52 728.903C123.52 728.914 123.52 728.926 123.52 728.937C123.52 728.948 123.52 728.96 123.52 728.971C123.52 728.983 123.52 728.994 123.52 729.006C123.52 729.017 123.52 729.029 123.52 729.04C123.52 729.052 123.52 729.063 123.52 729.075C123.52 729.086 123.52 729.098 123.52 729.109C123.52 729.121 123.52 729.132 123.52 729.144C123.52 729.155 123.52 729.167 123.52 729.178C123.52 729.19 123.52 729.201 123.52 729.213C123.52 729.224 123.52 729.236 123.52 729.248C123.52 729.259 123.52 729.271 123.52 729.282C123.52 729.294 123.52 729.305 123.52 729.317C123.52 729.329 123.52 729.34 123.52 729.352C123.52 729.363 123.52 729.375 123.52 729.387C123.52 729.398 123.52 729.41 123.52 729.421C123.52 729.433 123.52 729.445 123.52 729.456C123.52 729.468 123.52 729.48 123.52 729.491C123.52 729.503 123.52 729.515 123.52 729.526C123.52 729.538 123.52 729.55 123.52 729.561C123.52 729.573 123.52 729.585 123.52 729.596C123.52 729.608 123.52 729.62 123.52 729.631C123.52 729.643 123.52 729.655 123.52 729.667C123.52 729.678 123.52 729.69 123.52 729.702C123.52 729.713 123.52 729.725 123.52 729.737C123.52 729.749 123.52 729.76 123.52 729.772C123.52 729.784 123.52 729.796 123.52 729.807C123.52 729.819 123.52 729.831 123.52 729.843C123.52 729.855 123.52 729.866 123.52 729.878C123.52 729.89 123.52 729.902 123.52 729.914C123.52 729.925 123.52 729.937 123.52 729.949C123.52 729.961 123.52 729.973 123.52 729.985C123.52 729.996 123.52 730.008 123.52 730.02C123.52 730.032 123.52 730.044 123.52 730.056C123.52 730.068 123.52 730.079 123.52 730.091C123.52 730.103 123.52 730.115 123.52 730.127C123.52 730.139 123.52 730.151 123.52 730.163C123.52 730.175 123.52 730.186 123.52 730.198C123.52 730.21 123.52 730.222 123.52 730.234C123.52 730.246 123.52 730.258 123.52 730.27C123.52 730.282 123.52 730.294 123.52 730.306C123.52 730.318 123.52 730.33 123.52 730.342C123.52 730.354 123.52 730.366 123.52 730.378C123.52 730.39 123.52 730.402 123.52 730.414C123.52 730.426 123.52 730.438 123.52 730.45C123.52 730.462 123.52 730.474 123.52 730.486C123.52 730.498 123.52 730.51 123.52 730.522C123.52 730.534 123.52 730.546 123.52 730.558C123.52 730.57 123.52 730.582 123.52 730.594C123.52 730.606 123.52 730.618 123.52 730.63C123.52 730.642 123.52 730.654 123.52 730.667C123.52 730.679 123.52 730.691 123.52 730.703C123.52 730.715 123.52 730.727 123.52 730.739C123.52 730.751 123.52 730.763 123.52 730.776C123.52 730.788 123.52 730.8 123.52 730.812C123.52 730.824 123.52 730.836 123.52 730.848C123.52 730.861 123.52 730.873 123.52 730.885C123.52 730.897 123.52 730.909 123.52 730.921C123.52 730.934 123.52 730.946 123.52 730.958C123.52 730.97 123.52 730.982 123.52 730.995C123.52 731.007 123.52 731.019 123.52 731.031C123.52 731.043 123.52 731.056 123.52 731.068C123.52 731.08 123.52 731.092 123.52 731.105C123.52 731.117 123.52 731.129 123.52 731.141C123.52 731.154 123.52 731.166 123.52 731.178C123.52 731.19 123.52 731.203 123.52 731.215C123.52 731.227 123.52 731.24 123.52 731.252C123.52 731.264 123.52 731.277 123.52 731.289C123.52 731.301 123.52 731.313 123.52 731.326C123.52 731.338 123.52 731.35 123.52 731.363C123.52 731.375 123.52 731.387 123.52 731.4C123.52 731.412 123.52 731.425 123.52 731.437C123.52 731.449 123.52 731.462 123.52 731.474C123.52 731.486 123.52 731.499 123.52 731.511C123.52 731.524 123.52 731.536 123.52 731.548C123.52 731.561 123.52 731.573 123.52 731.586C123.52 731.598 123.52 731.61 123.52 731.623C123.52 731.635 123.52 731.648 123.52 731.66C123.52 731.673 123.52 731.685 123.52 731.698C123.52 731.71 123.52 731.723 123.52 731.735C123.52 731.747 123.52 731.76 123.52 731.772C123.52 731.785 123.52 731.797 123.52 731.81C123.52 731.822 123.52 731.835 123.52 731.847C123.52 731.86 123.52 731.872 123.52 731.885C123.52 731.898 123.52 731.91 123.52 731.923C123.52 731.935 123.52 731.948 123.52 731.96C123.52 731.973 123.52 731.985 123.52 731.998C123.52 732.01 123.52 732.023 123.52 732.036C123.52 732.048 123.52 732.061 123.52 732.073C123.52 732.086 123.52 732.099 123.52 732.111C123.52 732.124 123.52 732.136 123.52 732.149C123.52 732.162 123.52 732.174 123.52 732.187C123.52 732.2 123.52 732.212 123.52 732.225C123.52 732.237 123.52 732.25 123.52 732.263C123.52 732.275 123.52 732.288 123.52 732.301C123.52 732.313 123.52 732.326 123.52 732.339C123.52 732.351 123.52 732.364 123.52 732.377C123.52 732.39 123.52 732.402 123.52 732.415C123.52 732.428 123.52 732.44 123.52 732.453C123.52 732.466 123.52 732.479 123.52 732.491C123.52 732.504 123.52 732.517 123.52 732.53C123.52 732.542 123.52 732.555 123.52 732.568C123.52 732.581 123.52 732.593 123.52 732.606C123.52 732.619 123.52 732.632 123.52 732.644C123.52 732.657 123.52 732.67 123.52 732.683C123.52 732.696 123.52 732.709 123.52 732.721C123.52 732.734 123.52 732.747 123.52 732.76C123.52 732.773 123.52 732.785 123.52 732.798C123.52 732.811 123.52 732.824 123.52 732.837C123.52 732.85 123.52 732.863 123.52 732.875C123.52 732.888 123.52 732.901 123.52 732.914C123.52 732.927 123.52 732.94 123.52 732.953C123.52 732.966 123.52 732.979 123.52 732.991C123.52 733.004 123.52 733.017 123.52 733.03C123.52 733.043 123.52 733.056 123.52 733.069C123.52 733.082 123.52 733.095 123.52 733.108C123.52 733.121 123.52 733.134 123.52 733.147C123.52 733.16 123.52 733.173 123.52 733.186C123.52 733.199 123.52 733.212 123.52 733.225C123.52 733.238 123.52 733.251 123.52 733.264C123.52 733.277 123.52 733.29 123.52 733.303C123.52 733.316 123.52 733.329 123.52 733.342C123.52 733.355 123.52 733.368 123.52 733.381C123.52 733.394 123.52 733.407 123.52 733.42C123.52 733.433 123.52 733.446 123.52 733.459C123.52 733.472 123.52 733.485 123.52 733.498C123.52 733.511 123.52 733.524 123.52 733.538C123.52 733.551 123.52 733.564 123.52 733.577C123.52 733.59 123.52 733.603 123.52 733.616C123.52 733.629 123.52 733.642 123.52 733.656C123.52 733.669 123.52 733.682 123.52 733.695C123.52 733.708 123.52 733.721 123.52 733.734C123.52 733.748 123.52 733.761 123.52 733.774C123.52 733.787 123.52 733.8 123.52 733.813C123.52 733.827 123.52 733.84 123.52 733.853C123.52 733.866 123.52 733.879 123.52 733.893C123.52 733.906 123.52 733.919 123.52 733.932C123.52 733.946 123.52 733.959 123.52 733.972C123.52 733.985 123.52 733.999 123.52 734.012C123.52 734.025 123.52 734.038 123.52 734.052C123.52 734.065 123.52 734.078 123.52 734.091C123.52 734.105 123.52 734.118 123.52 734.131C123.52 734.145 123.52 734.158 123.52 734.171C123.52 734.184 123.52 734.198 123.52 734.211C123.52 734.224 123.52 734.238 123.52 734.251C123.52 734.264 123.52 734.278 123.52 734.291C123.52 734.304 123.52 734.318 123.52 734.331C123.52 734.345 123.52 734.358 123.52 734.371C123.52 734.385 123.52 734.398 123.52 734.411C123.52 734.425 123.52 734.438 123.52 734.452C123.52 734.465 123.52 734.478 123.52 734.492C123.52 734.505 123.52 734.519 123.52 734.532C123.52 734.545 123.52 734.559 123.52 734.572C123.52 734.586 123.52 734.599 123.52 734.613C123.52 734.626 123.52 734.64 123.52 734.653C123.52 734.667 123.52 734.68 123.52 734.693C123.52 734.707 123.52 734.72 123.52 734.734C123.52 734.747 123.52 734.761 123.52 734.774C123.52 734.788 123.52 734.801 123.52 734.815C123.52 734.828 123.52 734.842 123.52 734.856C123.52 734.869 123.52 734.883 123.52 734.896C123.52 734.91 123.52 734.923 123.52 734.937C123.52 734.95 123.52 734.964 123.52 734.977C123.52 734.991 123.52 735.005 123.52 735.018C123.52 735.032 123.52 735.045 123.52 735.059C123.52 735.073 123.52 735.086 123.52 735.1C123.52 735.113 123.52 735.127 123.52 735.141C123.52 735.154 123.52 735.168 123.52 735.182C123.52 735.195 123.52 735.209 123.52 735.222C123.52 735.236 123.52 735.25 123.52 735.263C123.52 735.277 123.52 735.291 123.52 735.304C123.52 735.318 123.52 735.332 123.52 735.345C123.52 735.359 123.52 735.373 123.52 735.387C123.52 735.4 123.52 735.414 123.52 735.428C123.52 735.441 123.52 735.455 123.52 735.469C123.52 735.483 123.52 735.496 123.52 735.51C123.52 735.524 123.52 735.538 123.52 735.551C123.52 735.565 123.52 735.579 123.52 735.593C123.52 735.606 123.52 735.62 123.52 735.634C123.52 735.648 123.52 735.662 123.52 735.675C123.52 735.689 123.52 735.703 123.52 735.717C123.52 735.731 123.52 735.744 123.52 735.758C123.52 735.772 123.52 735.786 123.52 735.8C123.52 735.813 123.52 735.827 123.52 735.841C123.52 735.855 123.52 735.869 123.52 735.883C123.52 735.897 123.52 735.91 123.52 735.924C123.52 735.938 123.52 735.952 123.52 735.966C123.52 735.98 123.52 735.994 123.52 736.008C123.52 736.022 123.52 736.035 123.52 736.049C123.52 736.063 123.52 736.077 123.52 736.091C123.52 736.105 123.52 736.119 123.52 736.133C123.52 736.147 123.52 736.161 123.52 736.175C123.52 736.189 123.52 736.203 123.52 736.217C123.52 736.231 123.52 736.245 123.52 736.259C123.52 736.273 123.52 736.287 123.52 736.301C123.52 736.315 123.52 736.329 123.52 736.343C123.52 736.357 123.52 736.371 123.52 736.385C123.52 736.399 123.52 736.413 123.52 736.427C123.52 736.441 123.52 736.455 123.52 736.469C123.52 736.483 123.52 736.497 123.52 736.511C123.52 736.525 123.52 736.539 123.52 736.553C123.52 736.567 123.52 736.581 123.52 736.595C123.52 736.61 123.52 736.624 123.52 736.638C123.52 736.652 123.52 736.666 123.52 736.68C123.52 736.694 123.52 736.708 123.52 736.722C123.52 736.737 123.52 736.751 123.52 736.765C123.52 736.779 123.52 736.793 123.52 736.807C123.52 736.821 123.52 736.836 123.52 736.85C123.52 736.864 123.52 736.878 123.52 736.892C123.52 736.906 123.52 736.921 123.52 736.935C123.52 736.949 123.52 736.963 123.52 736.977C123.52 736.992 123.52 737.006 123.52 737.02C123.52 737.034 123.52 737.048 123.52 737.063C123.52 737.077 123.52 737.091 123.52 737.105C123.52 737.12 123.52 737.134 123.52 737.148C123.52 737.162 123.52 737.177 123.52 737.191C123.52 737.205 123.52 737.219 123.52 737.234C123.52 737.248 123.52 737.262 123.52 737.277C123.52 737.291 123.52 737.305 123.52 737.32C123.52 737.334 123.52 737.348 123.52 737.363C123.52 737.377 123.52 737.391 123.52 737.406C123.52 737.42 123.52 737.434 123.52 737.449C123.52 737.463 123.52 737.477 123.52 737.492C123.52 737.506 123.52 737.52 123.52 737.535C123.52 737.549 123.52 737.563 123.52 737.578C123.52 737.592 123.52 737.607 123.52 737.621C123.52 737.635 123.52 737.65 123.52 737.664C123.52 737.679 123.52 737.693 123.52 737.708C123.52 737.722 123.52 737.736 123.52 737.751C123.52 737.765 123.52 737.78 123.52 737.794C123.52 737.809 123.52 737.823 123.52 737.838C123.52 737.852 123.52 737.867 123.52 737.881C123.52 737.896 123.52 737.91 123.52 737.925C123.52 737.939 123.52 737.954 123.52 737.968C123.52 737.983 123.52 737.997 123.52 738.012C123.52 738.026 123.52 738.041 123.52 738.055C123.52 738.07 123.52 738.084 123.52 738.099C123.52 738.113 123.52 738.128 123.52 738.142C123.52 738.157 123.52 738.172 123.52 738.186C123.52 738.201 123.52 738.215 123.52 738.23C123.52 738.245 123.52 738.259 123.52 738.274C123.52 738.288 123.52 738.303 123.52 738.318C123.52 738.332 123.52 738.347 123.52 738.361C123.52 738.376 123.52 738.391 123.52 738.405C123.52 738.42 123.52 738.435 123.52 738.449C123.52 738.464 123.52 738.479 123.52 738.493C123.52 738.508 123.52 738.523 123.52 738.537C123.52 738.552 123.52 738.567 123.52 738.581C123.52 738.596 123.52 738.611 123.52 738.625C123.52 738.64 123.52 738.655 123.52 738.67C123.52 738.684 123.52 738.699 123.52 738.714C123.52 738.728 123.52 738.743 123.52 738.758C123.52 738.773 123.52 738.787 123.52 738.802C123.52 738.817 123.52 738.832 123.52 738.847C123.52 738.861 123.52 738.876 123.52 738.891C123.52 738.906 123.52 738.92 123.52 738.935C123.52 738.95 123.52 738.965 123.52 738.98C123.52 738.995 123.52 739.009 123.52 739.024C123.52 739.039 123.52 739.054 123.52 739.069C123.52 739.084 123.52 739.098 123.52 739.113C123.52 739.128 123.52 739.143 123.52 739.158C123.52 739.173 123.52 739.188 123.52 739.202C123.52 739.217 123.52 739.232 123.52 739.247C123.52 739.262 123.52 739.277 123.52 739.292C123.52 739.307 123.52 739.322 123.52 739.337C123.52 739.351 123.52 739.366 123.52 739.381C123.52 739.396 123.52 739.411 123.52 739.426C123.52 739.441 123.52 739.456 123.52 739.471C123.52 739.486 123.52 739.501 123.52 739.516C123.52 739.531 123.52 739.546 123.52 739.561C123.52 739.576 123.52 739.591 123.52 739.606C123.52 739.621 123.52 739.636 123.52 739.651C123.52 739.666 123.52 739.681 123.52 739.696C123.52 739.711 123.52 739.726 123.52 739.741C123.52 739.756 123.52 739.771 123.52 739.786C123.52 739.801 123.52 739.816 123.52 739.831C123.52 739.846 123.52 739.861 123.52 739.876C123.52 739.892 123.52 739.907 123.52 739.922C123.52 739.937 123.52 739.952 123.52 739.967C123.52 739.982 123.52 739.997 123.52 740.012C123.52 740.027 123.52 740.043 123.52 740.058C123.52 740.073 123.52 740.088 123.52 740.103C123.52 740.118 123.52 740.133 123.52 740.149C123.52 740.164 123.52 740.179 123.52 740.194C123.52 740.209 123.52 740.224 123.52 740.24C123.52 740.255 123.52 740.27 123.52 740.285C123.52 740.3 123.52 740.316 123.52 740.331C123.52 740.346 123.52 740.361 123.52 740.376C123.52 740.392 123.52 740.407 123.52 740.422C123.52 740.437 123.52 740.453 123.52 740.468C123.52 740.483 123.52 740.498 123.52 740.514C123.52 740.529 123.52 740.544 123.52 740.559C123.52 740.575 123.52 740.59 123.52 740.605C123.52 740.621 123.52 740.636 123.52 740.651C123.52 740.666 123.52 740.682 123.52 740.697C123.52 740.712 123.52 740.728 123.52 740.743C123.52 740.758 123.52 740.774 123.52 740.789C123.52 740.804 123.52 740.82 123.52 740.835C123.52 740.851 123.52 740.866 123.52 740.881C123.52 740.897 123.52 740.912 123.52 740.927C123.52 740.943 123.52 740.958 123.52 740.974C123.52 740.989 123.52 741.004 123.52 741.02C123.52 741.035 123.52 741.051 123.52 741.066C123.52 741.081 123.52 741.097 123.52 741.112C123.52 741.128 123.52 741.143 123.52 741.159C123.52 741.174 123.52 741.189 123.52 741.205C123.52 741.22 123.52 741.236 123.52 741.251C123.52 741.267 123.52 741.282 123.52 741.298C123.52 741.313 123.52 741.329 123.52 741.344C123.52 741.36 123.52 741.375 123.52 741.391C123.52 741.406 123.52 741.422 123.52 741.437C123.52 741.453 123.52 741.468 123.52 741.484C123.52 741.5 123.52 741.515 123.52 741.531C123.52 741.546 123.52 741.562 123.52 741.577C123.52 741.593 123.52 741.608 123.52 741.624C123.52 741.64 123.52 741.655 123.52 741.671C123.52 741.686 123.52 741.702 123.52 741.718C123.52 741.733 123.52 741.749 123.52 741.764C123.52 741.78 123.52 741.796 123.52 741.811C123.52 741.827 123.52 741.843 123.52 741.858C123.52 741.874 123.52 741.89 123.52 741.905C123.52 741.921 123.52 741.937 123.52 741.952C123.52 741.968 123.52 741.984 123.52 741.999C123.52 742.015 123.52 742.031 123.52 742.046C123.52 742.062 123.52 742.078 123.52 742.093C123.52 742.109 123.52 742.125 123.52 742.141C123.52 742.156 123.52 742.172 123.52 742.188C123.52 742.204 123.52 742.219 123.52 742.235C123.52 742.251 123.52 742.267 123.52 742.282C123.52 742.298 123.52 742.314 123.52 742.33C123.52 742.345 123.52 742.361 123.52 742.377C123.52 742.393 123.52 742.409 123.52 742.424C123.52 742.44 123.52 742.456 123.52 742.472C123.52 742.488 123.52 742.503 123.52 742.519C123.52 742.535 123.52 742.551 123.52 742.567C123.52 742.583 123.52 742.599 123.52 742.614C123.52 742.63 123.52 742.646 123.52 742.662C123.52 742.678 123.52 742.694 123.52 742.71C123.52 742.725 123.52 742.741 123.52 742.757C123.52 742.773 123.52 742.789 123.52 742.805C123.52 742.821 123.52 742.837 123.52 742.853C123.52 742.869 123.52 742.885 123.52 742.901C123.52 742.916 123.52 742.932 123.52 742.948C123.52 742.964 123.52 742.98 123.52 742.996C123.52 743.012 123.52 743.028 123.52 743.044C123.52 743.06 123.52 743.076 123.52 743.092C123.52 743.108 123.52 743.124 123.52 743.14C123.52 743.156 123.52 743.172 123.52 743.188C123.52 743.204 123.52 743.22 123.52 743.236C123.52 743.252 123.52 743.268 123.52 743.284C123.52 743.3 123.52 743.316 123.52 743.332C123.52 743.349 123.52 743.365 123.52 743.381C123.52 743.397 123.52 743.413 123.52 743.429C123.52 743.445 123.52 743.461 123.52 743.477C123.52 743.493 123.52 743.509 123.52 743.525C123.52 743.542 123.52 743.558 123.52 743.574C123.52 743.59 123.52 743.606 123.52 743.622C123.52 743.638 123.52 743.654 123.52 743.671C123.52 743.687 123.52 743.703 123.52 743.719C123.52 743.735 123.52 743.751 123.52 743.768C123.52 743.784 123.52 743.8 123.52 743.816C123.52 743.832 123.52 743.849 123.52 743.865C123.52 743.881 123.52 743.897 123.52 743.913C123.52 743.93 123.52 743.946 123.52 743.962C123.52 743.978 123.52 743.995 123.52 744.011C123.52 744.027 123.52 744.043 123.52 744.06C123.52 744.076 123.52 744.092 123.52 744.108C123.52 744.125 123.52 744.141 123.52 744.157C123.52 744.173 123.52 744.19 123.52 744.206C123.52 744.222 123.52 744.239 123.52 744.255C123.52 744.271 123.52 744.288 123.52 744.304C123.52 744.32 123.52 744.336 123.52 744.353C123.52 744.369 123.52 744.385 123.52 744.402C123.52 744.418 123.52 744.435 123.52 744.451C123.52 744.467 123.52 744.484 123.52 744.5C123.52 744.516 123.52 744.533 123.52 744.549C123.52 744.566 123.52 744.582 123.52 744.598C123.52 744.615 123.52 744.631 123.52 744.648C123.52 744.664 123.52 744.68 123.52 744.697C123.52 744.713 123.52 744.73 123.52 744.746C123.52 744.763 123.52 744.779 123.52 744.795C123.52 744.812 123.52 744.828 123.52 744.845C123.52 744.861 123.52 744.878 123.52 744.894C123.52 744.911 123.52 744.927 123.52 744.944C123.52 744.96 123.52 744.977 123.52 744.993C123.52 745.01 123.52 745.026 123.52 745.043C123.52 745.059 123.52 745.076 123.52 745.092C123.52 745.109 123.52 745.125 123.52 745.142C123.52 745.158 123.52 745.175 123.52 745.192C123.52 745.208 123.52 745.225 123.52 745.241C123.52 745.258 123.52 745.274 123.52 745.291C123.52 745.308 123.52 745.324 123.52 745.341C123.52 745.357 123.52 745.374 123.52 745.391C123.52 745.407 123.52 745.424 123.52 745.44C123.52 745.457 123.52 745.474 123.52 745.49C123.52 745.507 123.52 745.524 123.52 745.54C123.52 745.557 123.52 745.574 123.52 745.59C123.52 745.607 123.52 745.624 123.52 745.64C123.52 745.657 123.52 745.674 123.52 745.69C123.52 745.707 123.52 745.724 123.52 745.74C123.52 745.757 123.52 745.774 123.52 745.791C123.52 745.807 123.52 745.824 123.52 745.841C123.52 745.858 123.52 745.874 123.52 745.891C123.52 745.908 123.52 745.924 123.52 745.941C123.52 745.958 123.52 745.975 123.52 745.992C123.52 746.008 123.52 746.025 123.52 746.042C123.52 746.059 123.52 746.075 123.52 746.092C123.52 746.109 123.52 746.126 123.52 746.143C123.52 746.159 123.52 746.176 123.52 746.193C123.52 746.21 123.52 746.227 123.52 746.244C123.52 746.26 123.52 746.277 123.52 746.294C123.52 746.311 123.52 746.328 123.52 746.345C123.52 746.362 123.52 746.378 123.52 746.395C123.52 746.412 123.52 746.429 123.52 746.446C123.52 746.463 123.52 746.48 123.52 746.497C123.52 746.514 123.52 746.53 123.52 746.547C123.52 746.564 123.52 746.581 123.52 746.598C123.52 746.615 123.52 746.632 123.52 746.649C123.52 746.666 123.52 746.683 123.52 746.7C123.52 746.717 123.52 746.734 123.52 746.751C123.52 746.768 123.52 746.785 123.52 746.802C123.52 746.819 123.52 746.836 123.52 746.853C123.52 746.87 123.52 746.887 123.52 746.904C123.52 746.921 123.52 746.938 123.52 746.955C123.52 746.972 123.52 746.989 123.52 747.006C123.52 747.023 123.52 747.04 123.52 747.057C123.52 747.074 123.52 747.091 123.52 747.108C123.52 747.125 123.52 747.142 123.52 747.159C123.52 747.176 123.52 747.193 123.52 747.21C123.52 747.228 123.52 747.245 123.52 747.262C123.52 747.279 123.52 747.296 123.52 747.313C123.52 747.33 123.52 747.347 123.52 747.364C123.52 747.382 123.52 747.399 123.52 747.416C123.52 747.433 123.52 747.45 123.52 747.467C123.52 747.484 123.52 747.502 123.52 747.519C123.52 747.536 123.52 747.553 123.52 747.57C123.52 747.587 123.52 747.605 123.52 747.622C123.52 747.639 123.52 747.656 123.52 747.673C123.52 747.691 123.52 747.708 123.52 747.725C123.52 747.742 123.52 747.76 123.52 747.777C123.52 747.794 123.52 747.811 123.52 747.829C123.52 747.846 123.52 747.863 123.52 747.88C123.52 747.898 123.52 747.915 123.52 747.932C123.52 747.949 123.52 747.967 123.52 747.984C123.52 748.001 123.52 748.019 123.52 748.036C123.52 748.053 123.52 748.07 123.52 748.088C123.52 748.105 123.52 748.122 123.52 748.14C123.52 748.157 123.52 748.174 123.52 748.192C123.52 748.209 123.52 748.226 123.52 748.244C123.52 748.261 123.52 748.278 123.52 748.296C123.52 748.313 123.52 748.331 123.52 748.348C123.52 748.365 123.52 748.383 123.52 748.4C123.52 748.417 123.52 748.435 123.52 748.452C123.52 748.47 123.52 748.487 123.52 748.505C123.52 748.522 123.52 748.539 123.52 748.557C123.52 748.574 123.52 748.592 123.52 748.609C123.52 748.627 123.52 748.644 123.52 748.661C123.52 748.679 123.52 748.696 123.52 748.714C123.52 748.731 123.52 748.749 123.52 748.766C123.52 748.784 123.52 748.801 123.52 748.819C123.52 748.836 123.52 748.854 123.52 748.871C123.52 748.889 123.52 748.906 123.52 748.924C123.52 748.941 123.52 748.959 123.52 748.976C123.52 748.994 123.52 749.012 123.52 749.029C123.52 749.047 123.52 749.064 123.52 749.082C123.52 749.099 123.52 749.117 123.52 749.134C123.52 749.152 123.52 749.17 123.52 749.187C123.52 749.205 123.52 749.222 123.52 749.24H124.52ZM124.52 727.4H125.52C125.52 682.475 134.849 642.776 153.48 608.275L152.6 607.8L151.72 607.325C132.911 642.157 123.52 682.192 123.52 727.4H124.52ZM152.6 607.8L153.473 608.289C172.842 573.7 196.709 541.877 225.076 512.819L224.36 512.12L223.644 511.421C195.158 540.603 171.185 572.566 151.727 607.311L152.6 607.8ZM224.36 512.12L225.084 512.81C253.5 483.008 281.915 454.593 310.329 427.565L309.64 426.84L308.951 426.115C280.512 453.167 252.074 481.605 223.636 511.43L224.36 512.12ZM309.64 426.84L310.336 427.558C333.223 405.365 354.031 384.557 372.76 365.134L372.04 364.44L371.32 363.746C352.609 383.15 331.817 403.942 308.944 426.122L309.64 426.84ZM372.04 364.44L372.76 365.134C391.526 345.673 406.486 326.194 417.628 306.696L416.76 306.2L415.892 305.704C404.847 325.032 389.994 344.38 371.32 363.746L372.04 364.44ZM416.76 306.2L417.636 306.683C428.813 286.424 434.4 264.418 434.4 240.68H433.4H432.4C432.4 264.089 426.894 285.762 415.884 305.717L416.76 306.2ZM433.4 240.68H434.4C434.4 202.384 423.953 174.977 402.808 158.766L402.2 159.56L401.592 160.354C422.047 176.036 432.4 202.71 432.4 240.68H433.4ZM402.2 159.56L402.808 158.766C381.802 142.662 355.577 134.64 324.2 134.64V135.64V136.64C355.223 136.64 380.998 144.565 401.592 160.354L402.2 159.56ZM324.2 135.64V134.64C297.738 134.64 273.684 139.167 252.053 148.238L252.44 149.16L252.827 150.082C274.183 141.126 297.969 136.64 324.2 136.64V135.64ZM252.44 149.16L252.042 148.242C231.176 157.285 213.414 167.729 198.771 179.583L199.4 180.36L200.029 181.137C214.506 169.418 232.104 159.062 252.838 150.078L252.44 149.16ZM199.4 180.36L198.775 179.579C184.902 190.677 174.814 199.372 168.533 205.653L169.24 206.36L169.947 207.067C176.146 200.868 186.164 192.229 200.025 181.141L199.4 180.36ZM169.24 206.36L170.05 205.773L109.73 122.573L108.92 123.16L108.11 123.747L168.43 206.947L169.24 206.36ZM108.92 123.16L109.61 123.884C124.114 110.07 142.088 96.2416 163.542 82.4003L163 81.56L162.458 80.7197C140.925 94.6117 122.846 108.516 108.23 122.436L108.92 123.16ZM163 81.56L163.561 82.3879C184.968 67.8866 209.494 56.1388 237.149 47.151L236.84 46.1999L236.531 45.2489C208.719 54.2878 184.019 66.1134 162.439 80.7321L163 81.56ZM236.84 46.1999L237.17 47.1438C264.787 37.4781 294.834 32.6399 327.32 32.6399V31.6399V30.6399C294.633 30.6399 264.36 35.5084 236.51 45.2561L236.84 46.1999ZM327.32 31.6399V32.6399C405.537 32.6399 463.128 50.6393 500.306 86.4403L501 85.72L501.694 84.9997C463.992 48.694 405.797 30.6399 327.32 30.6399V31.6399ZM501 85.72L500.306 86.4403C537.512 122.268 556.16 171.213 556.16 233.4H557.16H558.16C558.16 170.787 539.368 121.279 501.694 84.9997L501 85.72ZM557.16 233.4H556.16C556.16 268.588 547.537 301.701 530.286 332.754L531.16 333.24L532.034 333.726C549.449 302.379 558.16 268.932 558.16 233.4H557.16ZM531.16 333.24L530.286 332.754C512.997 363.874 490.863 393.619 463.875 421.991L464.6 422.68L465.325 423.369C492.417 394.887 514.656 365.006 532.034 333.726L531.16 333.24ZM464.6 422.68L463.875 421.991C437.537 449.715 410.506 477.093 382.782 504.124L383.48 504.84L384.178 505.556C411.92 478.507 438.969 451.111 465.325 423.369L464.6 422.68ZM383.48 504.84L382.787 504.119C365.444 520.769 347.061 539.151 327.641 559.265L328.36 559.96L329.079 560.655C348.485 540.556 366.85 522.191 384.173 505.561L383.48 504.84ZM328.36 559.96L327.64 559.266C308.89 578.71 292.565 598.161 278.666 617.619L279.48 618.2L280.294 618.781C294.129 599.413 310.39 580.037 329.08 560.654L328.36 559.96ZM279.48 618.2L278.662 617.624C265.44 636.414 258.054 653.221 256.645 668.025L257.64 668.12L258.636 668.215C259.999 653.899 267.173 637.426 280.298 618.775L279.48 618.2ZM257.64 668.12V669.12H580.04V668.12V667.12H257.64V668.12ZM580.04 668.12H579.04V769H580.04H581.04V668.12H580.04ZM580.04 769V768H126.6V769V770H580.04V769Z" fill="white" mask="url(#path-10-outside-1_101_2)"/>
</svg>
